<?xml version="1.0" encoding="UTF-8"?>
<svg version="1.1" xmlns="http://www.w3.org/2000/svg" width="1200" height="896">
<path d="M0 0 C1.19308273 -0.00845947 2.38616547 -0.01691895 3.61540222 -0.02563477 C4.92097076 -0.01956207 6.22653931 -0.01348938 7.57167053 -0.00723267 C8.96314913 -0.01129864 10.3546245 -0.01664067 11.74609375 -0.02316284 C15.52301216 -0.03684063 19.29968475 -0.03153566 23.07660747 -0.02202559 C27.03009246 -0.01442984 30.98355642 -0.0214745 34.93704224 -0.02618408 C41.57733437 -0.03164253 48.21752641 -0.02444839 54.85780334 -0.01016235 C62.53205199 0.00615766 70.20606145 0.00088081 77.88030428 -0.01564157 C84.47066288 -0.02926196 91.06094953 -0.03117321 97.65131766 -0.02332556 C101.58676769 -0.0186512 105.52210535 -0.01801749 109.45754814 -0.02793503 C113.15860863 -0.03661026 116.85936128 -0.03057287 120.56038857 -0.01325226 C122.56445011 -0.00740198 124.56853772 -0.0162987 126.57258606 -0.02563477 C128.3664399 -0.01294556 128.3664399 -0.01294556 130.1965332 0 C131.75256209 0.00169662 131.75256209 0.00169662 133.3400259 0.00342751 C136.57878194 0.43674507 138.49857286 1.53278502 141.16175842 3.38095093 C140.83175842 5.69095093 140.50175842 8.00095093 140.16175842 10.38095093 C135.53675842 12.50595093 135.53675842 12.50595093 132.16175842 11.38095093 C132.2004303 12.63778687 132.23910217 13.8946228 132.27894592 15.18954468 C132.27677445 20.74743501 131.32566942 25.99866068 130.28675842 31.44345093 C129.03158132 38.28539672 127.86995737 45.09202442 127.09925842 52.00595093 C124.76499771 71.63403884 124.76499771 71.63403884 119.16175842 77.38095093 C115.41175842 78.19345093 115.41175842 78.19345093 112.16175842 78.38095093 C112.20300842 79.16470093 112.24425842 79.94845093 112.28675842 80.75595093 C112.16175842 83.38095093 112.16175842 83.38095093 110.16175842 85.38095093 C107.43478619 85.55265996 104.82269375 85.61340772 102.09925842 85.56845093 C101.35353577 85.5678064 100.60781311 85.56716187 99.8394928 85.5664978 C94.30204002 85.52123252 94.30204002 85.52123252 93.16175842 84.38095093 C93.16175842 82.40095093 93.16175842 80.42095093 93.16175842 78.38095093 C74.68175842 78.38095093 56.20175842 78.38095093 37.16175842 78.38095093 C37.16175842 80.36095093 37.16175842 82.34095093 37.16175842 84.38095093 C36.16175842 85.38095093 36.16175842 85.38095093 32.56410217 85.47860718 C31.07578975 85.47193313 29.5874941 85.45997276 28.09925842 85.44345093 C27.34064514 85.43893921 26.58203186 85.43442749 25.8004303 85.42977905 C23.92083971 85.41795773 22.04128944 85.4000217 20.16175842 85.38095093 C18.70112992 82.73356176 18.16175842 81.48646758 18.16175842 78.38095093 C17.27488342 78.31907593 16.38800842 78.25720093 15.47425842 78.19345093 C11.23674638 77.15406118 9.91451627 75.74740923 7.16175842 72.38095093 C6.24455668 69.57503771 5.64184092 67.13674522 5.16175842 64.25595093 C5.00932678 63.42571411 4.85689514 62.59547729 4.69984436 61.74008179 C3.06720969 52.50985346 1.75309063 43.2198096 0.41175842 33.94345093 C0.29880432 33.16266174 0.18585022 32.38187256 0.06947327 31.5774231 C-0.25356459 29.32638607 -0.57062377 27.07460245 -0.88511658 24.82235718 C-0.98177612 24.14597702 -1.07843567 23.46959686 -1.17802429 22.77272034 C-1.65717313 19.28171171 -1.9413984 15.90477095 -1.83824158 12.38095093 C-2.97261658 12.23657593 -4.10699158 12.09220093 -5.27574158 11.94345093 C-8.83824158 11.38095093 -8.83824158 11.38095093 -9.83824158 10.38095093 C-10.15074158 7.00595093 -10.15074158 7.00595093 -9.83824158 3.38095093 C-6.77529081 0.2289389 -4.28426026 0.00467304 0 0 Z M29.16175842 17.38095093 C27.86057278 18.45851695 27.86057278 18.45851695 28.02894592 21.03329468 C28.03152405 22.11739624 28.03410217 23.2014978 28.03675842 24.31845093 C28.0341803 25.39997437 28.03160217 26.4814978 28.02894592 27.59579468 C27.97168053 30.33754756 27.97168053 30.33754756 29.16175842 32.38095093 C29.42781988 34.13208268 29.64849222 35.89022729 29.84535217 37.65048218 C29.96845764 38.70429077 30.09156311 39.75809937 30.21839905 40.84384155 C30.47094016 43.06490826 30.72096811 45.28626226 30.96839905 47.50790405 C31.09279358 48.56557983 31.21718811 49.62325562 31.34535217 50.71298218 C31.45419739 51.67953735 31.5630426 52.64609253 31.67518616 53.64193726 C32.17195651 56.438358 33.01573181 58.78963941 34.16175842 61.38095093 C36.14175842 60.88595093 36.14175842 60.88595093 38.16175842 60.38095093 C37.8421393 50.69649165 36.7158874 41.15723593 35.34925842 31.56845093 C35.19618225 30.40523315 35.04310608 29.24201538 34.88539124 28.04354858 C34.64127502 26.40651978 34.64127502 26.40651978 34.39222717 24.73641968 C34.181828 23.2614502 34.181828 23.2614502 33.96717834 21.75668335 C33.38137119 19.21730205 33.38137119 19.21730205 31.08485413 18.04623413 C30.45023254 17.82669067 29.81561096 17.60714722 29.16175842 17.38095093 Z M64.16175842 17.38095093 C61.87026739 20.81818748 61.91520847 22.08139707 61.93128967 26.12313843 C61.93322327 27.27298218 61.93515686 28.42282593 61.93714905 29.60751343 C61.95551819 31.41348999 61.95551819 31.41348999 61.97425842 33.25595093 C61.97490295 34.42126343 61.97554749 35.58657593 61.97621155 36.78720093 C62.01564038 44.69049035 62.45036682 52.51061854 63.16175842 60.38095093 C64.48175842 60.38095093 65.80175842 60.38095093 67.16175842 60.38095093 C69.25418836 58.28852099 68.35024277 53.74612891 68.36488342 50.85751343 C68.3705835 50.00039764 68.37628357 49.14328186 68.38215637 48.26019287 C68.39162124 46.44271078 68.39814623 44.62521141 68.4019928 42.80770874 C68.41169368 40.02452667 68.44270057 37.24208432 68.47425842 34.45907593 C68.48078863 32.6960595 68.48603903 30.93303776 68.48988342 29.17001343 C68.50223022 28.33555695 68.51457703 27.50110046 68.52729797 26.64135742 C68.65168389 22.31407088 68.65168389 22.31407088 66.70198059 18.63690186 C65.36382257 17.27562397 65.36382257 17.27562397 64.16175842 17.38095093 Z M98.16175842 17.38095093 C96.08510454 27.12912717 94.06271368 36.84864338 92.91175842 46.75595093 C92.83199768 47.43778442 92.75223694 48.11961792 92.6700592 48.82211304 C92.25213648 52.6910351 92.08950029 56.49105486 92.16175842 60.38095093 C93.48175842 60.71095093 94.80175842 61.04095093 96.16175842 61.38095093 C98.81859949 55.37699063 99.38684219 49.14951662 100.28675842 42.69345093 C100.46851624 41.46432983 100.65027405 40.23520874 100.83753967 38.96884155 C101.81826055 32.05586545 102.43503049 25.36355826 102.16175842 18.38095093 C100.84175842 18.05095093 99.52175842 17.72095093 98.16175842 17.38095093 Z " fill="#F7F7F7" transform="translate(794.8382415771484,265.6190490722656)"/>
<path d="M0 0 C1.81661133 -0.05510742 1.81661133 -0.05510742 3.66992188 -0.11132812 C13.65239437 -0.16050287 13.65239437 -0.16050287 17.859375 3.25390625 C20.39437224 5.92629315 22.13773665 8.67933226 23.625 12.0625 C25.6783529 16.48801585 27.88037558 20.68180001 30.375 24.875 C34.61712921 32.08776421 38.14531652 39.62540905 41.6550293 47.21606445 C44.27064194 52.81887778 47.11052674 58.1313608 50.39306641 63.3737793 C51.6032652 65.42006978 52.54838978 67.42393723 53.4375 69.625 C54.35752937 72.66747407 54.35752937 72.66747407 56.6875 73.5625 C56.94402344 72.72332031 57.20054687 71.88414062 57.46484375 71.01953125 C58.79024878 67.27198028 60.44784982 63.78304132 62.25 60.25 C62.60006104 59.55777344 62.95012207 58.86554687 63.31079102 58.15234375 C69.05918058 46.83619559 75.01445556 35.64378863 81.296875 24.61499023 C84.60545278 18.78217077 87.7229374 12.85447087 90.76953125 6.88085938 C93.47060085 1.67094957 93.47060085 1.67094957 95.6875 0.5625 C97.91496339 0.46477189 100.1453947 0.43172606 102.375 0.4296875 C103.36246216 0.42825241 103.36246216 0.42825241 104.36987305 0.42678833 C105.76188248 0.42610775 107.1538951 0.42795354 108.54589844 0.43212891 C110.67910883 0.43747896 112.81210867 0.43217988 114.9453125 0.42578125 C116.29687547 0.42644205 117.6484383 0.42772326 119 0.4296875 C120.85044922 0.43137939 120.85044922 0.43137939 122.73828125 0.43310547 C125.6875 0.5625 125.6875 0.5625 127.6875 1.5625 C128.99362327 5.48086981 128.84322733 9.21584544 128.84863281 13.30078125 C128.85359772 14.19372894 128.85856262 15.08667664 128.86367798 16.00668335 C128.8782929 18.9627967 128.88509937 21.91885645 128.890625 24.875 C128.8963756 26.92618817 128.90213335 28.97737632 128.90789795 31.02856445 C128.91840506 35.32926687 128.92425009 39.62995061 128.92773438 43.93066406 C128.93322818 49.4490873 128.95727635 54.96726492 128.98570633 60.48561096 C129.00429937 64.72172781 129.00953646 68.95778499 129.01107025 73.19393921 C129.01410325 75.22896675 129.02215345 77.26399309 129.03525543 79.29898071 C129.05225142 82.14091913 129.0504519 84.98225058 129.04394531 87.82421875 C129.0531601 88.66898773 129.06237488 89.51375671 129.0718689 90.38412476 C129.0304572 96.13870276 129.0304572 96.13870276 127.29858017 98.27880859 C125.15046517 99.99040359 123.81457126 99.93581558 121.08984375 99.92578125 C120.20619141 99.92513672 119.32253906 99.92449219 118.41210938 99.92382812 C117.49236328 99.90771484 116.57261719 99.89160156 115.625 99.875 C114.23958008 99.87983398 114.23958008 99.87983398 112.82617188 99.88476562 C105.95455173 99.82955173 105.95455173 99.82955173 103.6875 97.5625 C103.44026184 94.97064209 103.44026184 94.97064209 103.44458008 91.64746094 C103.43996513 89.7847757 103.43996513 89.7847757 103.43525696 87.88446045 C103.44215796 86.52193011 103.44942517 85.15940158 103.45703125 83.796875 C103.45822357 82.40163211 103.4586761 81.0063884 103.4584198 79.61114502 C103.45998572 76.68228144 103.46827976 73.7535399 103.48168945 70.82470703 C103.4986166 67.08117228 103.50250556 63.33777248 103.50174427 59.59420395 C103.50201716 56.70990728 103.50751843 53.82563977 103.51474571 50.94135284 C103.51791638 49.56193513 103.51989602 48.18251412 103.52063942 46.80309296 C103.52282361 44.86708888 103.53238996 42.93109746 103.54223633 40.99511719 C103.54604813 39.89528503 103.54985992 38.79545288 103.55378723 37.66229248 C103.68784166 34.55457959 104.11042735 31.61637714 104.6875 28.5625 C104.0275 28.5625 103.3675 28.5625 102.6875 28.5625 C102.43355469 29.3978125 102.17960937 30.233125 101.91796875 31.09375 C100.56250872 34.91485638 98.84560439 38.46304211 97 42.0625 C96.28767892 43.46870872 95.57544112 44.87495963 94.86328125 46.28125 C94.50314941 46.98894531 94.14301758 47.69664062 93.77197266 48.42578125 C92.06110406 51.79667768 90.37489343 55.17980966 88.6875 58.5625 C87.6875 60.5625 86.6875 62.5625 85.6875 64.5625 C85.0275 64.5625 84.3675 64.5625 83.6875 64.5625 C83.50574219 65.14257812 83.32398438 65.72265625 83.13671875 66.3203125 C81.6456894 70.95397293 80.00416424 75.26012355 77.6875 79.5625 C77.0275 79.5625 76.3675 79.5625 75.6875 79.5625 C75.48125 80.325625 75.275 81.08875 75.0625 81.875 C72.78957475 87.97057225 69.85870021 95.36365583 64.6875 99.5625 C61.38426471 100.18943284 58.04361558 100.02599808 54.6875 100 C53.77226562 100.01998047 52.85703125 100.03996094 51.9140625 100.06054688 C51.03492188 100.05990234 50.15578125 100.05925781 49.25 100.05859375 C48.44691406 100.06044678 47.64382813 100.0622998 46.81640625 100.06420898 C44.6875 99.5625 44.6875 99.5625 43.02319336 97.76513672 C41.83775689 95.81028243 40.74579213 93.88289509 39.75390625 91.82421875 C39.41504395 91.1286084 39.07618164 90.43299805 38.72705078 89.71630859 C38.38399902 89.00555176 38.04094727 88.29479492 37.6875 87.5625 C37.01077975 86.19318622 36.3324096 84.82468653 35.65234375 83.45703125 C34.63322393 81.40504626 33.61417007 79.35307198 32.59960938 77.29882812 C31.13493285 74.35530993 29.65494938 71.5091228 27.94140625 68.69921875 C26.6875 66.5625 26.6875 66.5625 26.6875 64.5625 C26.0275 64.5625 25.3675 64.5625 24.6875 64.5625 C24.419375 63.84707031 24.15125 63.13164063 23.875 62.39453125 C21.11493317 55.376335 17.78358327 49.17057961 13.65234375 42.86328125 C12.06895595 40.20331567 10.79900055 37.6794151 9.56469727 34.85620117 C9.21117691 34.05067307 8.85765656 33.24514496 8.49342346 32.41520691 C8.22746872 31.80381363 7.96151398 31.19242035 7.6875 30.5625 C7.68163376 31.38269119 7.67576752 32.20288239 7.66972351 33.04792786 C7.61184709 40.77317571 7.53980004 48.49809917 7.45178509 56.22305775 C7.40703547 60.19466439 7.36778979 64.16616738 7.34106445 68.13793945 C7.31507681 71.9701262 7.27470747 75.801915 7.22431374 79.63385582 C7.20761411 81.09664655 7.19611912 82.55950615 7.18988609 84.02237892 C7.18027806 86.06978817 7.1522617 88.11617224 7.11987305 90.16333008 C7.10876999 91.32915115 7.09766693 92.49497223 7.08622742 93.69612122 C6.6875 96.5625 6.6875 96.5625 5.29551697 98.44017029 C3.12716616 99.95358998 1.68422218 99.92074805 -0.9453125 99.890625 C-2.27755859 99.88289062 -2.27755859 99.88289062 -3.63671875 99.875 C-4.56097656 99.854375 -5.48523438 99.83375 -6.4375 99.8125 C-7.36949219 99.80734375 -8.30148437 99.8021875 -9.26171875 99.796875 C-16.15843612 99.71656388 -16.15843612 99.71656388 -17.3125 98.5625 C-17.42908347 95.62624036 -17.48052689 92.71319547 -17.48950195 89.77587891 C-17.49607315 88.85396255 -17.50264435 87.9320462 -17.50941467 86.98219299 C-17.52919768 83.91781545 -17.54082059 80.85348698 -17.55078125 77.7890625 C-17.55485678 76.74563061 -17.5589323 75.70219872 -17.56313133 74.62714767 C-17.58401219 69.10592596 -17.59830587 63.58472926 -17.60766602 58.06347656 C-17.61874225 52.34763177 -17.65315053 46.63217504 -17.69283772 40.91646767 C-17.71892553 36.5327988 -17.72735081 32.14922353 -17.73094749 27.76548386 C-17.73583279 25.65787507 -17.74750152 23.55027098 -17.76598549 21.44273758 C-17.79021332 18.49747817 -17.78944206 15.55323773 -17.7824707 12.60791016 C-17.79528076 11.73194687 -17.80809082 10.85598358 -17.82128906 9.95347595 C-17.7703164 4.0660415 -17.7703164 4.0660415 -15.45947266 1.5243988 C-10.66025925 -0.62577187 -5.16323589 0.00816537 0 0 Z " fill="#F4F4F5" transform="translate(367.3125,488.4375)"/>
<path d="M0 0 C1.00897339 0.00326294 1.00897339 0.00326294 2.03833008 0.0065918 C4.08859551 0.00974867 6.13741342 -0.01369197 8.1875 -0.0390625 C9.47720703 -0.03970703 10.76691406 -0.04035156 12.09570312 -0.04101562 C13.28220459 -0.04399658 14.46870605 -0.04697754 15.69116211 -0.05004883 C18.66210938 0.32226562 18.66210938 0.32226562 20.44433594 1.63427734 C22.53546208 4.53284313 24.25355535 7.63422357 25.97460938 10.75976562 C26.3683374 11.4682666 26.76206543 12.17676758 27.16772461 12.90673828 C36.66210938 30.10696316 36.66210938 30.10696316 36.66210938 33.32226562 C37.32210937 33.32226562 37.98210937 33.32226562 38.66210938 33.32226562 C40.7647213 37.3592042 42.8642303 41.3977356 44.9609375 45.43774414 C45.67396317 46.81057737 46.38782013 48.18297919 47.10253906 49.55493164 C48.13242351 51.53222372 49.15926323 53.51107146 50.18554688 55.49023438 C50.50333099 56.09876755 50.82111511 56.70730072 51.14852905 57.33427429 C52.48596569 59.9196037 53.71656058 62.46506312 54.75439453 65.18676758 C55.46199016 67.49229222 55.46199016 67.49229222 57.66210938 68.32226562 C57.8090625 67.78859375 57.95601563 67.25492187 58.10742188 66.70507812 C59.72460419 61.3330587 61.96620637 56.96775859 64.93554688 52.22851562 C66.96220898 48.81712059 68.72492924 45.31894034 70.47460938 41.75976562 C73.65506426 35.29836391 76.95986569 28.91748362 80.36523438 22.57177734 C82.19531561 19.14752378 83.97582471 15.71417625 85.64648438 12.20898438 C86.11139282 11.24049561 86.11139282 11.24049561 86.58569336 10.25244141 C87.4194952 8.50056442 88.23860015 6.74171385 89.05664062 4.98242188 C90.84183534 2.0244715 91.50675273 1.49870225 94.66210938 0.32226562 C99.17223025 -0.10710613 103.69619516 -0.00199649 108.22460938 0.00976562 C109.46919922 -0.00634766 110.71378906 -0.02246094 111.99609375 -0.0390625 C113.78176758 -0.0400293 113.78176758 -0.0400293 115.60351562 -0.04101562 C116.69349854 -0.04399658 117.78348145 -0.04697754 118.90649414 -0.05004883 C121.66210938 0.32226562 121.66210938 0.32226562 123.31106567 1.3213501 C125.47294894 4.52313091 125.06969569 7.97640636 125.03442383 11.70922852 C125.03807449 12.56476822 125.04172516 13.42030792 125.04548645 14.30177307 C125.05360037 17.13302384 125.03997602 19.96370385 125.02539062 22.79492188 C125.02487217 24.75882466 125.02538931 26.72272798 125.02690125 28.68663025 C125.02681149 32.80329125 125.01637381 36.91975655 124.99829102 41.03637695 C124.97558885 46.32170598 124.97506206 51.60674931 124.98180866 56.89211369 C124.98514458 60.94720514 124.97852594 65.00223106 124.96867943 69.0573101 C124.96482173 71.00662328 124.96368156 72.95594374 124.96526527 74.90526009 C124.96563475 77.6252147 124.9530494 80.34479822 124.93676758 83.06469727 C124.939245 83.87565857 124.94172241 84.68661987 124.9442749 85.52215576 C124.89085192 91.09352308 124.89085192 91.09352308 122.66210938 93.32226562 C119.52999305 93.91407159 116.34252326 93.97411514 113.16210938 94.13476562 C111.84146484 94.23047852 111.84146484 94.23047852 110.49414062 94.328125 C109.65238281 94.37388672 108.810625 94.41964844 107.94335938 94.46679688 C106.78416992 94.53411011 106.78416992 94.53411011 105.6015625 94.6027832 C104.96154297 94.5102124 104.32152344 94.4176416 103.66210938 94.32226562 C101.33987334 90.83891157 101.3933858 89.40881193 101.34326172 85.2902832 C101.32339203 84.04922318 101.30352234 82.80816315 101.28305054 81.52949524 C101.2711742 80.17526426 101.25951133 78.8210314 101.24804688 77.46679688 C101.2293362 76.0810175 101.20976286 74.69524953 101.18936157 73.30949402 C101.13802344 69.66487347 101.09840693 66.02021598 101.06121826 62.37542725 C101.02118902 58.65513965 100.97009179 54.93500596 100.91992188 51.21484375 C100.82314276 43.91742328 100.73874454 36.61992838 100.66210938 29.32226562 C99.99223999 30.66853027 99.99223999 30.66853027 99.30883789 32.04199219 C95.79969089 39.08430265 92.26584646 46.11000512 88.59960938 53.07226562 C88.17115723 53.88735596 87.74270508 54.70244629 87.30126953 55.54223633 C84.7435622 60.37480435 82.04794236 65.07349364 79.16601562 69.72070312 C76.72554568 73.94239919 74.60323745 78.32323277 72.46435547 82.70385742 C71.5439363 84.58383789 70.60467581 86.45332087 69.66210938 88.32226562 C69.19160156 89.28519531 68.72109375 90.248125 68.23632812 91.24023438 C66.66210938 93.32226562 66.66210938 93.32226562 64.43164062 94.10742188 C63.51769531 94.17832031 62.60375 94.24921875 61.66210938 94.32226562 C60.51097656 94.44472656 59.35984375 94.5671875 58.17382812 94.69335938 C53.80493607 94.76922369 50.84433163 94.63782119 46.66210938 93.32226562 C42.89794098 89.08544069 40.92300058 84.47957218 38.66210938 79.32226562 C37.78044899 77.8425059 36.87022802 76.37870635 35.91210938 74.94726562 C34.39404187 72.57507289 33.05356074 70.18852234 31.81835938 67.65820312 C29.22554343 62.41347914 26.47390257 57.25576535 23.72460938 52.09179688 C19.56706991 44.23720491 15.61848146 36.27943569 11.66210938 28.32226562 C11.65624313 29.10487259 11.65037689 29.88747955 11.64433289 30.69380188 C11.58645097 38.06587185 11.51440086 45.4376021 11.42639446 52.80936909 C11.38164914 56.59937226 11.34240257 60.38926691 11.31567383 64.17944336 C11.2896818 67.83657615 11.2493095 71.49329225 11.19892311 75.15016747 C11.18222642 76.54596973 11.17072959 77.94184411 11.16449547 79.33773232 C11.15488575 81.29143274 11.12514466 83.24500289 11.09448242 85.19848633 C11.08337936 86.31101273 11.07227631 87.42353912 11.06083679 88.56977844 C10.66210938 91.32226562 10.66210938 91.32226562 9.36335754 93.18229675 C6.44239616 95.13956854 3.1147231 94.71064104 -0.27539062 94.63476562 C-0.99146484 94.63798828 -1.70753906 94.64121094 -2.4453125 94.64453125 C-6.3207252 94.60502287 -8.973814 94.19409505 -12.33789062 92.32226562 C-12.38415802 80.62228126 -12.41973128 68.92231852 -12.44151497 57.22226143 C-12.45196814 51.78990582 -12.46615524 46.35761264 -12.48876953 40.92529297 C-12.51044333 35.68632262 -12.52244769 30.44741244 -12.52764511 25.20840073 C-12.53135072 23.20604377 -12.53858646 21.20369024 -12.54935074 19.2013588 C-12.5637931 16.40451089 -12.56587162 13.60791413 -12.56494141 10.81103516 C-12.57213196 9.97665924 -12.57932251 9.14228333 -12.58673096 8.28262329 C-12.55251908 -1.17489238 -8.17801571 0.04500159 0 0 Z " fill="#F3F4F4" transform="translate(163.337890625,369.677734375)"/>
<path d="M0 0 C1.24446899 0.00142502 2.48893799 0.00285004 3.77111816 0.00431824 C4.45760437 0.00241989 5.14409058 0.00052155 5.85137939 -0.00143433 C8.13007903 -0.00515012 10.40846223 0.00558182 12.68713379 0.01676941 C14.27457644 0.01796197 15.86201981 0.01841421 17.44946289 0.01815796 C20.78524159 0.01972475 24.12091328 0.02802264 27.45666504 0.04142761 C31.70873694 0.05830733 35.96068997 0.06224508 40.21279144 0.06148243 C43.49700024 0.06175619 46.78118363 0.06727193 50.06538391 0.07448387 C51.63128975 0.07764344 53.19719845 0.07963153 54.7631073 0.08037758 C78.96654009 0.10450588 78.96654009 0.10450588 88.09338379 6.24723816 C88.69537598 6.61848816 89.29736816 6.98973816 89.91760254 7.37223816 C93.13417918 9.61527466 94.52721671 11.74146873 95.46838379 15.43473816 C96.64705275 22.66310596 97.16107432 30.4727549 94.09338379 37.24723816 C91.60557784 39.8264329 88.93714128 42.07143301 86.09338379 44.24723816 C86.61287598 44.51536316 87.13236816 44.78348816 87.66760254 45.05973816 C93.14586868 48.13809843 96.53635771 51.45277562 99.09338379 57.24723816 C100.8553369 64.06622551 101.72384422 72.4118262 98.92932129 78.98551941 C97.44976951 81.2427843 95.89532333 83.24033867 94.09338379 85.24723816 C93.24775879 86.21661316 92.40213379 87.18598816 91.53088379 88.18473816 C82.39165358 95.91793296 65.67671018 94.54256462 54.41760254 94.47770691 C53.07294255 94.476509 51.72828171 94.47606323 50.38362122 94.47631836 C47.59630929 94.4747729 44.80912934 94.46663167 42.02185059 94.45304871 C38.47749947 94.43597858 34.93329106 94.43223802 31.38890362 94.43299389 C28.62370991 94.43272018 25.85854639 94.42720825 23.09336281 94.41999245 C21.16040535 94.41534002 19.22744167 94.41354528 17.29447937 94.41183472 C-0.77078299 94.31515477 -0.77078299 94.31515477 -4.90661621 92.24723816 C-4.9528836 80.54725379 -4.98845686 68.84729106 -5.01024055 57.14723396 C-5.02069373 51.71487836 -5.03488083 46.28258518 -5.05749512 40.8502655 C-5.07916891 35.61129515 -5.09117327 30.37238497 -5.0963707 25.13337326 C-5.1000763 23.13101631 -5.10731204 21.12866278 -5.11807632 19.12633133 C-5.13251868 16.32948343 -5.13459721 13.53288666 -5.13366699 10.73600769 C-5.14085754 9.90163177 -5.1480481 9.06725586 -5.15545654 8.20759583 C-5.12734385 0.43613431 -5.12734385 0.43613431 0 0 Z M18.09338379 18.24723816 C18.09338379 24.51723816 18.09338379 30.78723816 18.09338379 37.24723816 C24.23167537 37.29325617 30.36936353 37.33305032 36.50769043 37.35710144 C38.59397413 37.36713243 40.68024387 37.38076042 42.76647949 37.39811707 C45.77261817 37.4224931 48.77857024 37.43375052 51.78479004 37.44255066 C52.71110733 37.45287323 53.63742462 37.4631958 54.59181213 37.47383118 C60.79164101 37.47489498 65.96317098 36.95185972 71.50354004 33.93473816 C73.64018386 31.66685086 73.59956924 30.32434638 73.53088379 27.24723816 C73.52959473 26.38098816 73.52830566 25.51473816 73.52697754 24.62223816 C73.014537 21.81535664 72.34863676 20.94531098 70.09338379 19.24723816 C67.16420086 18.27084385 65.3031264 18.12587635 62.25476074 18.13371277 C61.27397049 18.1337883 60.29318024 18.13386383 59.28266907 18.13394165 C57.69817207 18.14168358 57.69817207 18.14168358 56.08166504 18.14958191 C54.99830368 18.15099686 53.91494232 18.1524118 52.79875183 18.15386963 C49.33443454 18.15947257 45.87018159 18.17202558 42.40588379 18.18473816 C40.05887951 18.18975278 37.71187423 18.19431575 35.36486816 18.19841003 C29.60768187 18.20944296 23.85054374 18.22670958 18.09338379 18.24723816 Z M18.09338379 54.24723816 C17.34532662 61.27363231 16.95543425 68.18115625 17.09338379 75.24723816 C24.4073622 75.32332778 31.72123845 75.3758548 39.03552246 75.41203308 C41.52351699 75.42711577 44.01148496 75.44758469 46.49938965 75.47355652 C50.07636067 75.50996153 53.65298001 75.52697 57.23010254 75.54020691 C58.34173264 75.55569077 59.45336273 75.57117462 60.59867859 75.58712769 C61.63938004 75.58735428 62.68008148 75.58758087 63.75231934 75.58781433 C64.66499069 75.59447617 65.57766205 75.601138 66.51799011 75.60800171 C70.62331547 75.0329239 73.259865 73.19189279 75.96838379 70.12223816 C77.57889044 66.00649893 77.30883095 62.47275246 76.09338379 58.24723816 C73.45756976 55.4357032 70.67569925 54.33007975 66.79646301 54.12698364 C65.89711533 54.12920425 64.99776764 54.13142487 64.07116699 54.13371277 C63.05033524 54.1337883 62.02950348 54.13386383 60.97773743 54.13394165 C59.32761909 54.14168358 59.32761909 54.14168358 57.64416504 54.14958191 C56.51641159 54.15099686 55.38865814 54.1524118 54.22673035 54.15386963 C50.61975467 54.15947346 47.01284075 54.17202663 43.40588379 54.18473816 C40.96252531 54.18975267 38.51916586 54.19431566 36.07580566 54.19841003 C30.08164392 54.20944413 24.08751827 54.22618601 18.09338379 54.24723816 Z " fill="#F4F4F5" transform="translate(792.9066162109375,369.7527618408203)"/>
<path d="M0 0 C1.66157639 0.00213753 1.66157639 0.00213753 3.35671997 0.00431824 C4.6133847 0.00124161 5.87004944 -0.00183502 7.16479492 -0.00500488 C8.54924697 0.0019065 9.93369728 0.00917445 11.31814575 0.01676941 C12.74711058 0.01796334 14.1760762 0.01841392 15.6050415 0.01815796 C18.61639254 0.01972633 21.62762532 0.02802647 24.63894653 0.04142761 C28.43783704 0.05814561 32.236596 0.06212437 36.03551865 0.06166267 C45.15410596 0.06177957 54.27072262 0.1225067 63.38845825 0.24723816 C64.47550049 0.26155884 65.56254272 0.27587952 66.68252563 0.29063416 C69.44271891 0.33856241 72.1997985 0.41531638 74.95877075 0.50895691 C75.7062558 0.52231583 76.45374084 0.53567474 77.22387695 0.54943848 C84.98343144 0.89879965 92.41061319 4.35627402 98.38845825 9.24723816 C104.78108499 16.56324432 105.9374517 26.59349528 105.63064575 36.03630066 C104.69326492 44.59368052 101.45153709 51.13603965 95.38845825 57.24723816 C91.31402319 60.50070496 88.68527397 62.24723816 83.38845825 62.24723816 C83.99431763 63.14555359 84.600177 64.04386902 85.22439575 64.96940613 C87.4653736 68.29474446 89.70029327 71.62411624 91.93338013 74.95475769 C92.90177581 76.3972773 93.87182351 77.83868928 94.84353638 79.27897644 C96.2378449 81.34625224 97.62621507 83.41740425 99.01345825 85.48942566 C99.45093384 86.13531647 99.88840942 86.78120728 100.33914185 87.44667053 C103.38845825 92.01949475 103.38845825 92.01949475 103.38845825 94.24723816 C104.04845825 94.24723816 104.70845825 94.24723816 105.38845825 94.24723816 C105.38845825 95.89723816 105.38845825 97.54723816 105.38845825 99.24723816 C101.2843507 99.30519948 97.18034809 99.34082129 93.07595825 99.37223816 C91.90871216 99.38899597 90.74146606 99.40575378 89.53884888 99.42301941 C87.8614563 99.43268738 87.8614563 99.43268738 86.150177 99.44255066 C84.60269775 99.45826111 84.60269775 99.45826111 83.0239563 99.47428894 C80.38845825 99.24723816 80.38845825 99.24723816 77.38845825 97.24723816 C76.49665628 95.42933414 75.60946167 93.60904423 74.743927 91.77848816 C72.18292719 86.99598707 68.91905014 82.58153725 65.67141724 78.24211121 C64.38845825 76.24723816 64.38845825 76.24723816 63.20120239 73.40275574 C61.58183814 69.95191136 60.26756645 67.77119007 57.38845825 65.24723816 C51.33218106 63.40905399 44.68018599 64.21889914 38.45095825 64.55973816 C36.7004605 64.61496248 34.94979595 64.66514444 33.19900513 64.71012878 C28.92468515 64.83090586 24.65840794 65.02036634 20.38845825 65.24723816 C20.3634021 66.20613953 20.33834595 67.16504089 20.31253052 68.15299988 C20.21847205 71.70522293 20.11824767 75.25724972 20.0161438 78.80924988 C19.972789 80.34761469 19.9311143 81.88602779 19.8911438 83.42448425 C19.83345427 85.63377956 19.76975646 87.84283164 19.7048645 90.05192566 C19.67979576 91.08638321 19.67979576 91.08638321 19.65422058 92.14173889 C19.50232996 97.01949475 19.50232996 97.01949475 18.38845825 99.24723816 C14.95140121 99.39228991 11.51512792 99.4812183 8.07595825 99.55973816 C7.09949341 99.60163269 6.12302856 99.64352722 5.11697388 99.68669128 C4.17918091 99.70280457 3.24138794 99.71891785 2.275177 99.73551941 C0.97906494 99.77479553 0.97906494 99.77479553 -0.3432312 99.81486511 C-2.61154175 99.24723816 -2.61154175 99.24723816 -4.23103333 97.16067505 C-5.92991305 93.57534461 -5.97936392 91.02785218 -5.96798706 87.06462097 C-5.97003143 86.35968002 -5.97207581 85.65473907 -5.97418213 84.92843628 C-5.97718418 82.60214589 -5.95870835 80.2765693 -5.93966675 77.95036316 C-5.93660367 76.31671829 -5.93473173 74.68307079 -5.93399048 73.04942322 C-5.92938852 69.61965465 -5.91498319 66.19012098 -5.89279175 62.76042175 C-5.86477851 58.41383555 -5.85360594 54.06743586 -5.84910965 49.72076797 C-5.84388526 45.52644341 -5.82938709 41.33216316 -5.81466675 37.13786316 C-5.81278603 36.36026894 -5.8109053 35.58267471 -5.80896759 34.78151703 C-5.78292135 26.43152291 -5.63594747 18.09474692 -5.22384644 9.7540741 C-5.19377125 9.02892735 -5.16369606 8.30378059 -5.1327095 7.5566597 C-4.73151652 0.44793901 -4.73151652 0.44793901 0 0 Z M19.38845825 21.24723816 C19.28899372 23.01583009 19.25765608 24.78835267 19.25564575 26.55973816 C19.25435669 27.63481628 19.25306763 28.70989441 19.2517395 29.81755066 C19.25560669 30.94934753 19.25947388 32.08114441 19.26345825 33.24723816 C19.25959106 34.37903503 19.25572388 35.51083191 19.2517395 36.67692566 C19.25302856 37.75200378 19.25431763 38.82708191 19.25564575 39.93473816 C19.25677368 40.92860535 19.25790161 41.92247253 19.25906372 42.94645691 C19.13011495 45.21099042 19.13011495 45.21099042 20.38845825 46.24723816 C23.45849827 46.34862906 26.50553572 46.38690185 29.57595825 46.38005066 C30.97346313 46.38148575 30.97346313 46.38148575 32.39920044 46.38294983 C34.37983263 46.38363226 36.36046704 46.3817736 38.34109497 46.37760925 C41.3478207 46.37230978 44.35439375 46.37752701 47.3611145 46.38395691 C49.28689608 46.3832952 51.21267756 46.38201212 53.13845825 46.38005066 C54.02944214 46.38207489 54.92042603 46.38409912 55.83840942 46.38618469 C68.30314349 46.3563236 68.30314349 46.3563236 79.38845825 41.24723816 C81.35240902 37.31933663 80.72740388 32.53853193 80.38845825 28.24723816 C78.90177881 23.97351547 78.90177881 23.97351547 75.61054993 21.1100769 C72.96199121 20.0816409 70.92495662 19.99996494 68.08499146 20.00431824 C67.02742142 20.00124161 65.96985138 19.99816498 64.88023376 19.99499512 C63.74470566 20.00218063 62.60917755 20.00936615 61.4392395 20.01676941 C60.27088058 20.01722763 59.10252167 20.01768585 57.89875793 20.01815796 C55.43169131 20.02117745 52.96462655 20.02905466 50.49758911 20.04142761 C46.70528475 20.05971729 42.91322404 20.06193705 39.12088013 20.06169128 C36.72699779 20.06660521 34.33311712 20.07243298 31.9392395 20.07926941 C30.7976387 20.08038223 29.6560379 20.08149506 28.47984314 20.0826416 C27.43172958 20.08902145 26.38361603 20.09540131 25.30374146 20.10197449 C24.37648758 20.10578629 23.4492337 20.10959808 22.49388123 20.11352539 C20.40185626 20.01355085 20.40185626 20.01355085 19.38845825 21.24723816 Z " fill="#F5F5F6" transform="translate(881.6115417480469,488.7527618408203)"/>
<path d="M0 0 C1.92834435 -0.00956978 1.92834435 -0.00956978 3.89564514 -0.01933289 C5.29818687 -0.02086256 6.70072911 -0.02197599 8.10327148 -0.02270508 C9.55093925 -0.02592167 10.9986067 -0.02928604 12.4462738 -0.03279114 C15.48339591 -0.03877727 18.5204896 -0.04063178 21.55761719 -0.04003906 C25.42171285 -0.03993796 29.2856226 -0.05353801 33.14967442 -0.07081127 C36.14311025 -0.08201735 39.13650255 -0.08395558 42.1299572 -0.08342934 C43.55269951 -0.08459854 44.97544335 -0.08895971 46.39816475 -0.0967617 C62.61371232 -0.1772971 79.47537399 1.35794459 91.66186523 13.14526367 C99.97024807 21.57113879 104.19536205 32.98034093 104.73217773 44.74291992 C104.39693576 60.9649065 102.4774744 74.45141579 91.17749023 86.76245117 C77.89094419 99.45702239 59.49494275 99.46559601 42.27124023 99.41088867 C40.74904316 99.41223995 39.2268465 99.4141843 37.70465088 99.41668701 C34.54825645 99.41960581 31.39197663 99.4154395 28.2355957 99.40600586 C24.1870422 99.39449465 20.13875054 99.40126386 16.09020615 99.41315079 C12.96246338 99.42035774 9.83478347 99.4180889 6.70703888 99.4128952 C5.21266905 99.41156153 3.71829352 99.41319656 2.22393036 99.41785431 C0.14937492 99.42291319 -1.92474479 99.41522429 -3.99926758 99.40405273 C-5.17837708 99.40246155 -6.35748657 99.40087036 -7.57232666 99.39923096 C-10.33813477 99.14526367 -10.33813477 99.14526367 -12.33813477 97.14526367 C-12.5369611 94.20870478 -12.61079001 91.36642683 -12.59692383 88.42871094 C-12.60042847 87.5261557 -12.60393311 86.62360046 -12.60754395 85.69369507 C-12.61637189 82.69960925 -12.61050786 79.70575829 -12.60375977 76.71166992 C-12.60510623 74.63663182 -12.6070466 72.56159403 -12.60955811 70.48655701 C-12.61251091 66.13277184 -12.60820714 61.77906862 -12.59887695 57.42529297 C-12.58748945 51.83850096 -12.5940365 46.25190124 -12.60602188 40.66511631 C-12.6132423 36.37837775 -12.61095158 32.09168491 -12.6057663 27.80494499 C-12.60442994 25.74481115 -12.60607703 23.68467318 -12.6107254 21.62454414 C-12.6157928 18.74665427 -12.60807698 15.86907744 -12.59692383 12.99121094 C-12.60097229 12.13552017 -12.60502075 11.27982941 -12.60919189 10.39820862 C-12.58092342 6.46969838 -12.56653803 4.48786857 -10.33813477 1.14526367 C-6.99603499 -0.16620291 -3.55178618 0.01197667 0 0 Z M11.66186523 20.14526367 C11.66186523 39.61526367 11.66186523 59.08526367 11.66186523 79.14526367 C19.21061523 79.20713867 26.75936523 79.26901367 34.53686523 79.33276367 C38.08090088 79.37373169 38.08090088 79.37373169 41.6965332 79.41552734 C43.59903454 79.42430082 45.50154157 79.43194271 47.40405273 79.43823242 C48.84953491 79.46125427 48.84953491 79.46125427 50.32421875 79.48474121 C58.09707001 79.48769817 65.15458944 78.38992018 71.78686523 74.14526367 C74.0038358 72.23740574 74.0038358 72.23740574 73.66186523 69.14526367 C74.32186523 69.14526367 74.98186523 69.14526367 75.66186523 69.14526367 C81.4446587 58.33395416 81.11903385 44.79864103 77.66186523 33.14526367 C74.04351671 26.3910131 70.10868754 24.10482012 63.07592773 21.79370117 C56.90837829 20.1370455 51.0085043 20.0114847 44.66967773 20.04760742 C43.41078735 20.04911804 43.41078735 20.04911804 42.12646484 20.05065918 C39.01325093 20.0558624 35.9000566 20.06982353 32.78686523 20.08276367 C22.32999023 20.11370117 22.32999023 20.11370117 11.66186523 20.14526367 Z " fill="#F6F6F6" transform="translate(95.338134765625,488.854736328125)"/>
<path d="M0 0 C2.9462608 0.00532909 5.89236705 0.00004282 8.83862305 -0.00634766 C17.82848042 -0.01035247 26.80260408 0.08100151 35.78198242 0.54052734 C36.85230965 0.5915712 36.85230965 0.5915712 37.94425964 0.64364624 C49.92080088 1.34792174 60.33904628 5.85917282 69.78198242 13.13037109 C71.85215133 15.46526748 72.5446929 17.14025474 73.78198242 20.13037109 C74.19706055 20.81099609 74.61213867 21.49162109 75.03979492 22.19287109 C81.96918384 33.91343749 82.49031961 51.42375684 79.53198242 64.48974609 C76.21995069 76.15085782 70.74187044 85.86340989 60.04760742 92.14990234 C50.5423337 97.22571851 40.52825886 99.25254831 29.79272461 99.25976562 C29.1332785 99.26151794 28.4738324 99.26327026 27.79440308 99.26507568 C25.63919354 99.269437 23.48406762 99.26657794 21.32885742 99.26318359 C19.82147201 99.26385796 18.3140867 99.26482909 16.80670166 99.26608276 C13.65977942 99.2675517 10.5128857 99.26542991 7.3659668 99.26074219 C3.33195115 99.25502568 -0.70199824 99.25834109 -4.73601151 99.26431465 C-7.84320578 99.26792526 -10.95038429 99.26677971 -14.05757904 99.26418686 C-15.54553994 99.26351999 -17.03350226 99.26433763 -18.52146149 99.26666641 C-20.59645904 99.26920326 -22.67134841 99.26533865 -24.74633789 99.25976562 C-25.92657532 99.25897003 -27.10681274 99.25817444 -28.32281494 99.25735474 C-31.21801758 99.13037109 -31.21801758 99.13037109 -34.21801758 98.13037109 C-34.26428254 85.77846678 -34.29985699 73.42658295 -34.32164192 61.07460976 C-34.33209563 55.33958509 -34.34628369 49.60461954 -34.36889648 43.86962891 C-34.39056838 38.33888541 -34.40257424 32.8081989 -34.40777206 27.27741623 C-34.41147801 25.16341631 -34.4187144 23.04941964 -34.42947769 20.93544388 C-34.4439175 17.98293475 -34.44599868 15.03066354 -34.44506836 12.078125 C-34.45225891 11.19699539 -34.45944946 10.31586578 -34.46685791 9.40803528 C-34.4461219 3.35847542 -34.4461219 3.35847542 -32.21801758 1.13037109 C-21.78250192 -0.76207409 -10.56413096 -0.02266794 0 0 Z M-10.21801758 20.13037109 C-10.21801758 39.60037109 -10.21801758 59.07037109 -10.21801758 79.13037109 C0.85760742 79.22318359 0.85760742 79.22318359 12.15698242 79.31787109 C14.46746582 79.34518311 16.77794922 79.37249512 19.15844727 79.40063477 C21.01993286 79.40940865 22.88142428 79.41705044 24.74291992 79.42333984 C25.68498291 79.43868774 26.6270459 79.45403564 27.59765625 79.46984863 C35.24031118 79.47281935 42.68341976 78.70151884 48.71948242 73.69287109 C49.40010742 72.84724609 50.08073242 72.00162109 50.78198242 71.13037109 C51.33885742 70.55287109 51.89573242 69.97537109 52.46948242 69.38037109 C56.16671113 63.04226474 56.12181665 55.21303911 56.09448242 48.06787109 C56.1105957 47.22160156 56.12670898 46.37533203 56.14331055 45.50341797 C56.14840465 38.89637128 55.22548548 33.19152238 51.02026367 27.92333984 C50.38475586 27.39353516 49.74924805 26.86373047 49.09448242 26.31787109 C48.47186523 25.77517578 47.84924805 25.23248047 47.20776367 24.67333984 C40.16421216 20.19314202 33.8533024 19.70921797 25.71948242 19.83740234 C24.80360352 19.84042358 23.88772461 19.84344482 22.9440918 19.84655762 C19.55660567 19.8621313 16.16928149 19.90401435 12.78198242 19.94287109 C5.19198242 20.00474609 -2.39801758 20.06662109 -10.21801758 20.13037109 Z " fill="#F6F6F7" transform="translate(1039.218017578125,488.86962890625)"/>
<path d="M0 0 C0.71107407 -0.00671722 1.42214813 -0.01343445 2.1547699 -0.02035522 C4.51096567 -0.03938148 6.86687663 -0.04326341 9.22314453 -0.04541016 C10.86923335 -0.05184098 12.51532103 -0.05856956 14.16140747 -0.06558228 C17.61983888 -0.07757089 21.07817037 -0.08126209 24.53662109 -0.08007812 C28.93546021 -0.07987624 33.33364374 -0.10703485 37.73232841 -0.14162254 C41.13848716 -0.16404954 44.54449297 -0.16791068 47.95071793 -0.16685867 C49.56999061 -0.16919647 51.18926871 -0.17791552 52.80846786 -0.19352341 C75.58593838 -0.39230016 75.58593838 -0.39230016 83.537323 6.50942993 C91.17263574 14.69825639 93.40186314 21.35115427 93.33251953 32.39990234 C92.69363597 39.47021377 90.71146663 46.93623753 86.16845703 52.51708984 C83.65070654 54.55826614 81.20702347 55.7650703 78.23095703 57.04052734 C76.75369141 57.68248047 76.75369141 57.68248047 75.24658203 58.33740234 C74.49892578 58.65193359 73.75126953 58.96646484 72.98095703 59.29052734 C73.57263672 60.06396484 74.16431641 60.83740234 74.77392578 61.63427734 C82.44991127 71.75205267 82.44991127 71.75205267 85.71923828 77.21240234 C86.72480292 78.86862646 87.77355239 80.49860953 88.83642578 82.11865234 C89.48224609 83.10349609 90.12806641 84.08833984 90.79345703 85.10302734 C91.39802734 86.01697266 92.00259766 86.93091797 92.62548828 87.87255859 C93.98095703 90.29052734 93.98095703 90.29052734 93.98095703 93.29052734 C72.23723473 95.7307046 72.23723473 95.7307046 67.04345703 92.41552734 C63.20678223 86.6023837 59.72186268 80.67098548 56.41845703 74.54052734 C54.89535724 71.75064228 53.30300745 69.32599287 51.23095703 66.91552734 C48.98095703 64.29052734 48.98095703 64.29052734 47.98095703 61.29052734 C36.10095703 61.29052734 24.22095703 61.29052734 11.98095703 61.29052734 C12.31095703 63.60052734 12.64095703 65.91052734 12.98095703 68.29052734 C13.00574781 70.25672556 12.97823433 72.22437193 12.89501953 74.18896484 C12.85119141 75.24470703 12.80736328 76.30044922 12.76220703 77.38818359 C12.68486328 79.01046875 12.68486328 79.01046875 12.60595703 80.66552734 C12.56212891 81.77025391 12.51830078 82.87498047 12.47314453 84.01318359 C12.11244231 92.15904206 12.11244231 92.15904206 10.98095703 93.29052734 C9.49456711 93.44707762 8.00146576 93.54119677 6.50830078 93.60693359 C5.60917969 93.64882813 4.71005859 93.69072266 3.78369141 93.73388672 C2.83816406 93.77320313 1.89263672 93.81251953 0.91845703 93.85302734 C-0.0309375 93.89621094 -0.98033203 93.93939453 -1.95849609 93.98388672 C-4.3118565 94.0903201 -6.66532651 94.19233743 -9.01904297 94.29052734 C-10.65131145 91.02599039 -10.17535047 87.42157218 -10.18017578 83.83349609 C-10.18514069 82.95859528 -10.19010559 82.08369446 -10.19522095 81.18228149 C-10.20985682 78.28085553 -10.21664596 75.37948419 -10.22216797 72.47802734 C-10.22791702 70.46785479 -10.23367478 68.45768227 -10.23944092 66.44750977 C-10.24995413 62.23079166 -10.2557951 58.01409265 -10.25927734 53.79736328 C-10.2647712 48.38306395 -10.28881689 42.96901496 -10.3172493 37.55479431 C-10.33583049 33.40278372 -10.3410788 29.25083407 -10.34261322 25.0987854 C-10.34564912 23.1020063 -10.35370895 21.1052285 -10.3667984 19.10848999 C-10.38376921 16.32131615 -10.38200111 13.53476249 -10.37548828 10.74755859 C-10.38470306 9.91632477 -10.39391785 9.08509094 -10.40341187 8.22866821 C-10.38653564 5.93432617 -10.38653564 5.93432617 -10.01904297 2.29052734 C-6.3146842 -0.17904517 -4.42454639 0.02621928 0 0 Z M11.98095703 19.29052734 C11.88179133 20.91310279 11.85015926 22.53992566 11.84814453 24.16552734 C11.84685547 25.15037109 11.84556641 26.13521484 11.84423828 27.14990234 C11.84810547 28.18630859 11.85197266 29.22271484 11.85595703 30.29052734 C11.85208984 31.32693359 11.84822266 32.36333984 11.84423828 33.43115234 C11.84552734 34.41599609 11.84681641 35.40083984 11.84814453 36.41552734 C11.84927246 37.32560547 11.85040039 38.23568359 11.8515625 39.17333984 C11.74535694 41.27581214 11.74535694 41.27581214 12.98095703 42.29052734 C15.97656613 42.46370383 18.95111416 42.57485789 21.94970703 42.64208984 C22.85918091 42.66524261 23.76865479 42.68839539 24.70568848 42.71224976 C26.63918259 42.75999775 28.57274048 42.8052182 30.50634766 42.84814453 C33.44085451 42.91461892 36.37489293 42.99263536 39.30908203 43.07177734 C41.18927359 43.11675484 43.06948171 43.16104661 44.94970703 43.20458984 C45.81881714 43.22848785 46.68792725 43.25238586 47.58337402 43.27700806 C57.92211264 43.82489833 57.92211264 43.82489833 66.98095703 39.91552734 C70.04298064 35.89662135 70.41295792 32.41949495 70.30126953 27.51318359 C70.09122338 25.04801183 70.09122338 25.04801183 68.23095703 22.35302734 C58.92159234 16.44516129 45.69996767 18.01092752 35.04077148 18.0847168 C32.26097662 18.10324382 29.48151099 18.10522412 26.70166016 18.10498047 C24.93668329 18.10988704 23.17170868 18.11571156 21.40673828 18.12255859 C20.57459305 18.12367142 19.74244781 18.12478424 18.88508606 18.12593079 C15.1272415 17.79574403 15.1272415 17.79574403 11.98095703 19.29052734 Z " fill="#F4F4F5" transform="translate(547.01904296875,369.70947265625)"/>
<path d="M0 0 C4.01569615 4.22704858 5.75210073 7.93943579 6.6875 13.6875 C6.86925781 14.73292969 7.05101562 15.77835937 7.23828125 16.85546875 C7.30595703 18.16451172 7.30595703 18.16451172 7.375 19.5 C5.375 21.5 5.375 21.5 3.22021484 21.72705078 C2.35090332 21.71657715 1.4815918 21.70610352 0.5859375 21.6953125 C-0.35507813 21.68886719 -1.29609375 21.68242187 -2.265625 21.67578125 C-3.25046875 21.65902344 -4.2353125 21.64226562 -5.25 21.625 C-6.24257812 21.61597656 -7.23515625 21.60695313 -8.2578125 21.59765625 C-10.71378134 21.57404116 -13.16927168 21.54110799 -15.625 21.5 C-16.06779297 20.33017578 -16.06779297 20.33017578 -16.51953125 19.13671875 C-17.81842782 16.03864389 -18.98016803 14.57297641 -21.625 12.5 C-34.52372035 7.87593044 -53.11498115 7.24678167 -65.9609375 12.4453125 C-67.79293275 13.40581579 -67.79293275 13.40581579 -68.625 15.5 C-68.53848369 17.04613014 -68.38497364 18.58909387 -68.1875 20.125 C-68.08566406 20.94226563 -67.98382812 21.75953125 -67.87890625 22.6015625 C-67.75322266 23.54128906 -67.75322266 23.54128906 -67.625 24.5 C-57.15408406 27.11772899 -46.5092085 28.40854372 -35.73730469 28.78955078 C-7.02094341 29.82827819 -7.02094341 29.82827819 3.9140625 37.83984375 C5.72469595 39.89738177 6.4685046 41.92952675 7.375 44.5 C7.725625 45.11875 8.07625 45.7375 8.4375 46.375 C11.09115893 52.38996025 11.07312139 60.14901735 9.75 66.5 C5.97244559 74.74193689 0.66061038 79.7917548 -7.625 83.5 C-11.58396361 84.76213535 -15.55008306 85.69884943 -19.625 86.5 C-20.36032959 86.67128418 -21.09565918 86.84256836 -21.85327148 87.01904297 C-27.93064995 88.07360437 -34.21667855 87.79201005 -40.375 87.8125 C-41.11910126 87.81511841 -41.86320251 87.81773682 -42.62985229 87.82043457 C-59.55424196 87.82683761 -75.89836255 86.40716354 -88.86328125 74.41015625 C-94.46395653 68.33758372 -94.78045994 62.94540056 -95.625 54.5 C-88.035 54.5 -80.445 54.5 -72.625 54.5 C-71.635 57.14 -70.645 59.78 -69.625 62.5 C-66.55886394 65.85683068 -62.64229013 66.42941002 -58.3125 67.1875 C-57.60826904 67.31342529 -56.90403809 67.43935059 -56.1784668 67.5690918 C-43.01495723 69.74022565 -28.14256562 69.5780479 -15.625 64.5 C-13.3098563 61.02728445 -13.37046237 59.57260203 -13.625 55.5 C-13.955 54.51 -14.285 53.52 -14.625 52.5 C-16.275 52.17 -17.925 51.84 -19.625 51.5 C-19.625 50.84 -19.625 50.18 -19.625 49.5 C-20.42905273 49.4498877 -21.23310547 49.39977539 -22.06152344 49.34814453 C-29.97475665 48.85032201 -37.88562697 48.32577494 -45.79492188 47.76904297 C-48.12408645 47.60543133 -50.45346585 47.44479456 -52.78320312 47.28955078 C-79.02471424 45.48785374 -79.02471424 45.48785374 -88.625 36.5 C-92.72252803 29.91342916 -93.32413874 23.06845426 -92.625 15.5 C-92.55410156 14.70335937 -92.48320313 13.90671875 -92.41015625 13.0859375 C-91.44535541 6.77679042 -88.59424987 2.47193096 -83.625 -1.5 C-76.0775224 -5.7910623 -68.16666846 -7.49509783 -59.625 -8.5 C-58.41263672 -8.66628906 -58.41263672 -8.66628906 -57.17578125 -8.8359375 C-39.49222594 -10.99888476 -14.82118822 -11.45930894 0 0 Z " fill="#F3F3F3" transform="translate(1039.625,377.5)"/>
<path d="M0 0 C1.04935226 -0.00525696 1.04935226 -0.00525696 2.11990356 -0.01062012 C4.44429325 -0.01945436 6.76838036 -0.01357489 9.09277344 -0.00683594 C10.71547504 -0.00818392 12.33817624 -0.01012557 13.96087646 -0.01263428 C17.37402158 -0.0155893 20.78706231 -0.01128253 24.20019531 -0.00195312 C28.53712614 0.00933309 32.87380646 0.00295408 37.21072769 -0.00909805 C40.5705954 -0.01639999 43.93040594 -0.01398911 47.29027557 -0.00884247 C48.88637065 -0.00752316 50.4824712 -0.00909222 52.07855988 -0.01380157 C80.10508252 -0.07823846 80.10508252 -0.07823846 89.20214844 7.25878906 C90.04712891 7.8659375 90.04712891 7.8659375 90.90917969 8.48535156 C96.73226858 12.8774624 98.20604728 17.55411194 99.38964844 24.50878906 C101.01502761 36.63026084 100.78653128 46.14627861 93.20214844 56.25878906 C92.60402344 57.14566406 92.00589844 58.03253906 91.38964844 58.94628906 C88.64908816 61.84345278 85.90961857 63.0423437 82.20214844 64.25878906 C81.4357756 64.51626419 80.66940277 64.77373932 79.87980652 65.03901672 C72.44536094 67.29833897 65.61306195 67.65428652 57.87792969 67.55175781 C56.65051559 67.54751297 55.4231015 67.54326813 54.15849304 67.53889465 C50.27697877 67.52223725 46.39600311 67.48460855 42.51464844 67.44628906 C39.86686953 67.43122554 37.2190824 67.41754007 34.57128906 67.40527344 C28.11472822 67.37237616 21.65847683 67.32230715 15.20214844 67.25878906 C15.21000366 68.65955688 15.21000366 68.65955688 15.21801758 70.08862305 C15.23502464 73.54191703 15.24758145 76.99516674 15.25708008 80.44848633 C15.26211965 81.94523825 15.26895131 83.44198522 15.27758789 84.9387207 C15.28967003 87.08578713 15.29538035 89.23278868 15.29980469 91.37988281 C15.30765991 93.32012329 15.30765991 93.32012329 15.31567383 95.29956055 C15.20214844 98.25878906 15.20214844 98.25878906 14.20214844 99.25878906 C10.73006037 99.5097783 7.24474224 99.44401002 3.76464844 99.44628906 C2.29415039 99.4646582 2.29415039 99.4646582 0.79394531 99.48339844 C-0.14255859 99.48533203 -1.0790625 99.48726562 -2.04394531 99.48925781 C-2.90689209 99.4933667 -3.76983887 99.49747559 -4.65893555 99.50170898 C-6.79785156 99.25878906 -6.79785156 99.25878906 -8.79785156 97.25878906 C-8.99674973 94.25643537 -9.07049004 91.34628808 -9.05664062 88.34277344 C-9.06014526 87.41910477 -9.0636499 86.4954361 -9.06726074 85.54377747 C-9.07608832 82.47995566 -9.07022527 79.41636336 -9.06347656 76.35253906 C-9.06482292 74.23026485 -9.0667632 72.10799093 -9.0692749 69.98571777 C-9.07222756 65.53358021 -9.06792396 61.08152279 -9.05859375 56.62939453 C-9.04719917 50.91246919 -9.05375788 45.19573162 -9.06573868 39.47881317 C-9.07295345 35.09518001 -9.07067111 30.71159163 -9.06548309 26.32795715 C-9.06414554 24.21954832 -9.065798 22.11113547 -9.0704422 20.00273132 C-9.07550113 17.059979 -9.0678061 14.11753402 -9.05664062 11.17480469 C-9.06068909 10.29681717 -9.06473755 9.41882965 -9.06890869 8.51423645 C-9.01412921 0.75134795 -7.51514062 0.00943108 0 0 Z M15.20214844 20.25878906 C15.20214844 29.16878906 15.20214844 38.07878906 15.20214844 47.25878906 C22.49851614 47.35069572 29.79286979 47.43031583 37.08935547 47.47851562 C39.57054455 47.49861147 42.05168639 47.5258929 44.53271484 47.56054688 C48.10233225 47.609152 51.6713226 47.63177879 55.24121094 47.64941406 C56.34767975 47.6700592 57.45414856 47.69070435 58.59414673 47.7119751 C64.77629891 47.71376996 68.54990504 47.49157572 73.20214844 43.25878906 C75.99117875 39.0752436 76.25498823 35.23327806 76.20214844 30.25878906 C75.42445432 26.48241853 74.10175973 23.91844696 70.92451477 21.58866882 C67.92190737 20.12189091 66.08862354 19.89444676 62.76928711 19.91821289 C61.70856491 19.91843948 60.64784271 19.91866608 59.55497742 19.91889954 C57.8547216 19.94212532 57.8547216 19.94212532 56.12011719 19.96582031 C54.95080154 19.97006516 53.7814859 19.97431 52.57673645 19.97868347 C48.84747144 19.99545622 45.11874972 20.03310714 41.38964844 20.07128906 C38.85905729 20.08633766 36.32845766 20.10002576 33.79785156 20.11230469 C27.5989069 20.1428013 21.40113476 20.2015285 15.20214844 20.25878906 Z " fill="#F3F3F3" transform="translate(523.7978515625,488.7412109375)"/>
<path d="M0 0 C1.20076172 0.00322266 2.40152344 0.00644531 3.63867188 0.00976562 C4.82783203 -0.00634766 6.01699219 -0.02246094 7.2421875 -0.0390625 C8.39009766 -0.03970703 9.53800781 -0.04035156 10.72070312 -0.04101562 C11.77104736 -0.04399658 12.8213916 -0.04697754 13.90356445 -0.05004883 C17.25471408 0.37685813 19.12874565 1.31701142 21.82617188 3.32226562 C22.97460938 5.73632812 22.97460938 5.73632812 23.82617188 8.32226562 C24.66937409 9.79921218 25.54662827 11.2570705 26.45117188 12.69726562 C29.4669384 17.62277183 32.18731108 22.66861063 34.84619141 27.79248047 C36.89582442 31.70579824 39.12551375 35.44819934 41.48950195 39.17919922 C43.97624872 43.16616966 46.30469094 47.24457944 48.63867188 51.32226562 C49.42806152 52.70103882 49.42806152 52.70103882 50.23339844 54.10766602 C53.69720928 60.20852795 56.94600973 66.3748249 60.01098633 72.68408203 C62.85217972 78.49851266 66.06057285 84.06035034 69.35742188 89.62695312 C70.82617188 92.32226562 70.82617188 92.32226562 70.82617188 94.32226562 C71.48617187 94.32226562 72.14617187 94.32226562 72.82617188 94.32226562 C72.49617187 95.97226562 72.16617188 97.62226562 71.82617188 99.32226562 C67.72237489 99.46715797 63.61923221 99.55620105 59.51367188 99.63476562 C58.34642578 99.67666016 57.17917969 99.71855469 55.9765625 99.76171875 C54.85830078 99.77783203 53.74003906 99.79394531 52.58789062 99.81054688 C51.04041138 99.849823 51.04041138 99.849823 49.46166992 99.88989258 C46.82617188 99.32226562 46.82617188 99.32226562 45.08007812 97.00927734 C44.66628906 96.12256348 44.2525 95.23584961 43.82617188 94.32226562 C43.22417969 93.17371094 42.6221875 92.02515625 42.00195312 90.84179688 C41.37874341 89.60718562 40.75767969 88.37148897 40.13867188 87.13476562 C39.81833984 86.50634766 39.49800781 85.87792969 39.16796875 85.23046875 C36.82617188 80.56185451 36.82617188 80.56185451 36.82617188 78.32226562 C16.03617188 78.65226563 -4.75382813 78.98226562 -26.17382812 79.32226562 C-28.48382812 83.94226563 -30.79382813 88.56226563 -33.17382812 93.32226562 C-38.17382812 99.32226562 -38.17382812 99.32226562 -40.8527832 100.00341797 C-41.79017334 99.97199707 -42.72756348 99.94057617 -43.69335938 99.90820312 C-44.71494141 99.88886719 -45.73652344 99.86953125 -46.7890625 99.84960938 C-47.84416016 99.79933594 -48.89925781 99.7490625 -49.98632812 99.69726562 C-51.59797852 99.65666016 -51.59797852 99.65666016 -53.2421875 99.61523438 C-55.8881238 99.54467607 -58.52994052 99.44615319 -61.17382812 99.32226562 C-62.1454814 95.93927742 -62.17993987 94.58265094 -60.48632812 91.44726562 C-60.15246094 90.81046875 -59.81859375 90.17367187 -59.47460938 89.51757812 C-58.47451436 87.82973008 -57.39467161 86.18894706 -56.28320312 84.57226562 C-53.90132546 80.90240967 -52.00616602 77.13297903 -50.11132812 73.19726562 C-48.05894581 68.93612901 -46.06201782 65.08399499 -43.17382812 61.32226562 C-42.18092769 59.42327573 -41.22498744 57.50468453 -40.29882812 55.57226562 C-38.21768788 51.33309572 -36.01647618 47.33164745 -33.45117188 43.37304688 C-31.3794201 40.0468399 -29.5750703 36.57760544 -27.72070312 33.12695312 C-26.21281906 30.39296131 -24.61979877 27.73272029 -22.98632812 25.07226562 C-20.67126344 21.26168112 -18.90590669 17.43595223 -17.17382812 13.32226562 C-10.3601445 0.06420371 -10.3601445 0.06420371 0 0 Z M3.82617188 20.32226562 C3.41367187 21.17046875 3.00117187 22.01867187 2.57617188 22.89257812 C-1.69521966 31.56884217 -6.31809502 39.96187159 -11.17382812 48.32226562 C-12.1795784 50.0689672 -13.18048354 51.81847928 -14.17382812 53.57226562 C-14.56570313 54.25804687 -14.95757813 54.94382812 -15.36132812 55.65039062 C-16.31952755 57.31226192 -16.31952755 57.31226192 -16.17382812 59.32226562 C-2.64382813 59.32226562 10.88617187 59.32226562 24.82617188 59.32226562 C22.56263645 52.53165936 19.78112858 46.817836 16.01367188 40.75976562 C12.02285222 34.2376844 8.96279247 27.28222256 5.82617188 20.32226562 C5.16617188 20.32226562 4.50617188 20.32226562 3.82617188 20.32226562 Z " fill="#F3F4F4" transform="translate(792.173828125,488.677734375)"/>
<path d="M0 0 C2.81117911 -0.28621686 5.40115429 -0.37819403 8.21337891 -0.34057617 C9.0622316 -0.34101425 9.91108429 -0.34145233 10.78565979 -0.34190369 C13.59952568 -0.33980882 16.41280033 -0.31644515 19.2265625 -0.29296875 C21.17426223 -0.28737527 23.12196618 -0.283104 25.06967163 -0.28010559 C30.20230715 -0.26863727 35.334689 -0.23915304 40.46722412 -0.20599365 C45.70207284 -0.17533553 50.93696244 -0.16160937 56.171875 -0.14648438 C66.44802827 -0.11428521 76.72399306 -0.06306492 87 0 C88.5171199 3.03423981 88.18439257 6.17504794 88.1875 9.5 C88.19974609 10.18964844 88.21199219 10.87929688 88.22460938 11.58984375 C88.22988695 13.39477494 88.12184458 15.19917842 88 17 C86 19 86 19 83.2918396 19.24050903 C82.14156281 19.23606781 80.99128601 19.23162659 79.80615234 19.22705078 C77.85435562 19.22682419 77.85435562 19.22682419 75.86312866 19.22659302 C74.43739673 19.21637893 73.01166635 19.20594692 71.5859375 19.1953125 C70.13148187 19.19158295 68.67702373 19.1887357 67.2225647 19.18673706 C63.39201944 19.179096 59.56162554 19.15944357 55.73114014 19.1373291 C51.82338509 19.11688078 47.91560561 19.10773752 44.0078125 19.09765625 C36.33846464 19.076198 28.66927279 19.04101215 21 19 C20.67 24.94 20.34 30.88 20 37 C22.69494629 36.93099487 22.69494629 36.93099487 25.44433594 36.8605957 C31.38326321 36.71214517 37.32236948 36.57793249 43.26183701 36.45341206 C46.86263647 36.37740089 50.46311804 36.29569551 54.06347656 36.20092773 C57.53863902 36.1096657 61.01383749 36.03342566 64.48957062 35.96755028 C66.45958077 35.92630041 68.42924623 35.86953661 70.39886475 35.81257629 C71.59980774 35.79232895 72.80075073 35.7720816 74.03808594 35.7512207 C75.09509705 35.72679398 76.15210815 35.70236725 77.2411499 35.67720032 C80.4266474 36.04991995 81.77692174 36.70749925 84 39 C84.32442838 41.69662492 84.4257178 43.94802797 84.3125 46.625 C84.30283203 47.31851563 84.29316406 48.01203125 84.28320312 48.7265625 C84.1685424 53.8314576 84.1685424 53.8314576 83 55 C81.03630847 55.0940067 79.06920801 55.11743381 77.10327148 55.11352539 C75.84203964 55.11344986 74.5808078 55.11337433 73.28135681 55.11329651 C71.89460206 55.1081891 70.50784771 55.10297309 69.12109375 55.09765625 C67.71004791 55.09579201 66.29900143 55.09436814 64.88795471 55.09336853 C61.16759465 55.08954379 57.4472734 55.0797139 53.72692871 55.06866455 C49.93319219 55.05844948 46.13944942 55.05387071 42.34570312 55.04882812 C34.89711564 55.03809158 27.4485682 55.02049515 20 55 C20 61.6 20 68.2 20 75 C22.01391846 74.98428955 24.02783691 74.9685791 26.1027832 74.95239258 C32.75237703 74.90271158 39.401979 74.86955703 46.05170918 74.84456348 C50.08397033 74.82889898 54.11604153 74.8076467 58.14819336 74.77368164 C62.0385392 74.74111571 65.9287022 74.72315289 69.81917381 74.71536827 C71.30437283 74.70981974 72.7895617 74.69898489 74.274683 74.68280983 C76.35302072 74.66107149 78.43060032 74.65803144 80.5090332 74.65942383 C81.69261917 74.65276199 82.87620514 74.64610016 84.09565735 74.63923645 C87 75 87 75 88.88298035 76.32963562 C90.66109964 78.98859253 90.35817845 81.41771417 90.3125 84.5625 C90.30863281 85.71878906 90.30476563 86.87507813 90.30078125 88.06640625 C90 91 90 91 88 93 C85.20948909 93.19863343 82.51820952 93.27269851 79.7265625 93.25878906 C78.87116882 93.2622937 78.01577515 93.26579834 77.13446045 93.26940918 C74.29789186 93.27823477 71.46157127 93.27237445 68.625 93.265625 C66.65966748 93.26697141 64.69433528 93.26891174 62.72900391 93.27142334 C58.60641311 93.27437572 54.48390887 93.27007328 50.36132812 93.26074219 C45.0681367 93.2493476 39.77514809 93.25590646 34.48196411 93.26788712 C30.42259178 93.27510263 26.3632678 93.27281921 22.30389404 93.26763153 C20.35178605 93.26629418 18.39967372 93.26794573 16.4475708 93.27259064 C13.72274085 93.2776508 10.99824264 93.26995288 8.2734375 93.25878906 C7.46090515 93.26283752 6.6483728 93.26688599 5.81121826 93.27105713 C0.22852813 93.22852813 0.22852813 93.22852813 -2 91 C-2.19863596 88.21471664 -2.27269937 85.52885225 -2.25878906 82.74243164 C-2.2622937 81.88864426 -2.26579834 81.03485687 -2.26940918 80.15519714 C-2.27823572 77.32343494 -2.27237359 74.49192114 -2.265625 71.66015625 C-2.26697151 69.69721936 -2.26891192 67.73428279 -2.27142334 65.77134705 C-2.27437596 61.65295239 -2.27007301 57.53464437 -2.26074219 53.41625977 C-2.24935508 48.13213474 -2.25590158 42.84821303 -2.26788712 37.5640955 C-2.27510839 33.5089718 -2.27281642 29.45389643 -2.26763153 25.39877129 C-2.26629539 23.4502809 -2.26794151 21.50178616 -2.27259064 19.55330086 C-2.27765941 16.83106973 -2.26994033 14.10916934 -2.25878906 11.38696289 C-2.26283752 10.57802582 -2.26688599 9.76908875 -2.27105713 8.93563843 C-2.24184888 5.09441458 -2.1818402 3.2727603 0 0 Z " fill="#F5F6F6" transform="translate(309,370)"/>
<path d="M0 0 C0.80759766 -0.01224609 1.61519531 -0.02449219 2.44726562 -0.03710938 C3.23423828 -0.03904297 4.02121094 -0.04097656 4.83203125 -0.04296875 C5.54721924 -0.04707764 6.26240723 -0.05118652 6.99926758 -0.05541992 C9.64160433 0.237911 11.76631112 1.1163395 14.1875 2.1875 C14.18416908 3.01410378 14.18416908 3.01410378 14.18077087 3.85740662 C14.15834931 9.6830072 14.14344276 15.5085952 14.13256836 21.33422852 C14.12759277 23.49764505 14.12080991 25.66105832 14.11206055 27.82446289 C12.3591258 52.10949265 12.3591258 52.10949265 19.1875 74.1875 C30.61716883 82.87404831 48.57680333 81.236434 62.14526367 79.5690918 C68.15323061 78.44650335 73.80311509 75.14192575 77.3125 70.1875 C78.78853996 65.12679156 79.31416487 60.27456088 79.37695312 55.0144043 C79.39367065 53.81684006 79.41038818 52.61927582 79.4276123 51.38542175 C79.44118774 50.10709976 79.45476318 48.82877777 79.46875 47.51171875 C79.48680739 46.17746759 79.50541126 44.84322372 79.52453613 43.50898743 C79.59404514 38.57945458 79.65393972 33.64981459 79.71356201 28.72015381 C79.75628007 25.2092077 79.80082804 21.69830993 79.85046387 18.18745422 C79.88726278 15.55664366 79.91966748 12.92576747 79.9473877 10.29484558 C79.96410522 9.11304214 79.98082275 7.93123871 79.99804688 6.71362305 C80.01057495 5.66804733 80.02310303 4.62247162 80.03601074 3.54521179 C80.1875 1.1875 80.1875 1.1875 81.1875 0.1875 C82.55575469 0.08882331 83.92897445 0.05670932 85.30078125 0.0546875 C86.13673828 0.05339844 86.97269531 0.05210937 87.83398438 0.05078125 C88.71376953 0.05464844 89.59355469 0.05851562 90.5 0.0625 C91.36818359 0.05863281 92.23636719 0.05476563 93.13085938 0.05078125 C94.3905957 0.05271484 94.3905957 0.05271484 95.67578125 0.0546875 C96.44446533 0.05581543 97.21314941 0.05694336 98.00512695 0.05810547 C100.18709124 0.18747576 102.08021679 0.63126543 104.1875 1.1875 C104.25754999 9.15985617 104.31058645 17.13208001 104.34293652 25.10466957 C104.35847659 28.80817293 104.3794963 32.51146306 104.41381836 36.21484375 C104.44683477 39.80050066 104.4644402 43.38595477 104.47213173 46.97175217 C104.48023018 48.97990365 104.50357866 50.98797555 104.52738953 52.9960022 C104.52958411 65.20169493 103.75165246 76.39799066 95.515625 85.90625 C94.74734375 86.6590625 93.9790625 87.411875 93.1875 88.1875 C92.69000244 88.68145264 92.19250488 89.17540527 91.67993164 89.68432617 C87.22583943 93.83757913 82.91452969 95.76652113 77.125 97.5 C76.34833984 97.75072266 75.57167969 98.00144531 74.77148438 98.25976562 C55.69463518 104.28488396 29.8662334 103.59427398 11.1875 96.1875 C7.42634474 94.20980334 4.34510217 92.01020497 1.1875 89.1875 C0.23875 88.56875 -0.71 87.95 -1.6875 87.3125 C-9.01788031 79.98211969 -10.9368787 66.92932416 -11.15307617 57.04199219 C-11.15260828 54.43940479 -11.13608566 51.83678235 -11.10546875 49.234375 C-11.09985681 47.83905499 -11.09559429 46.44372897 -11.09260559 45.04840088 C-11.08128222 41.41846704 -11.0519271 37.78890716 -11.01849365 34.15911865 C-10.9875189 30.43816178 -10.9740424 26.71714305 -10.95898438 22.99609375 C-10.92704182 15.72639407 -10.87600229 8.4569999 -10.8125 1.1875 C-7.45228043 -0.49260978 -3.69152188 0.00290442 0 0 Z " fill="#F5F5F5" transform="translate(226.8125,488.8125)"/>
<path d="M0 0 C1.19012695 0.0009668 1.19012695 0.0009668 2.40429688 0.00195312 C3.22865234 0.01806641 4.05300781 0.03417969 4.90234375 0.05078125 C5.73056641 0.04755859 6.55878906 0.04433594 7.41210938 0.04101562 C13.57271783 0.09615533 13.57271783 0.09615533 15.83984375 2.36328125 C16.01480593 4.94331497 16.07160743 7.41724421 16.03515625 9.99609375 C16.03314209 10.6624585 16.03112793 11.32882324 16.02905273 12.01538086 C16.01858263 14.5064176 15.99066 16.99735628 15.96484375 19.48828125 C15.90296875 27.84140625 15.90296875 27.84140625 15.83984375 36.36328125 C34.97984375 36.36328125 54.11984375 36.36328125 73.83984375 36.36328125 C73.50984375 35.37328125 73.17984375 34.38328125 72.83984375 33.36328125 C72.75587218 31.00647912 72.73256188 28.64734044 72.7421875 26.2890625 C72.74360245 25.60522995 72.7450174 24.9213974 72.74647522 24.21684265 C72.75206499 22.03644403 72.76461553 19.85614874 72.77734375 17.67578125 C72.78236008 16.19596503 72.78692275 14.71614719 72.79101562 13.23632812 C72.80203104 9.61194568 72.81928863 5.98762355 72.83984375 2.36328125 C75.73789885 0.71384541 77.80554592 0.11400188 81.1328125 0.1328125 C81.92751953 0.13474609 82.72222656 0.13667969 83.54101562 0.13867188 C84.36150391 0.15091797 85.18199219 0.16316406 86.02734375 0.17578125 C87.27547852 0.17674805 87.27547852 0.17674805 88.54882812 0.17773438 C94.69941118 0.22284868 94.69941118 0.22284868 95.83984375 1.36328125 C97.16995202 10.78993094 97.00375525 20.27085005 97.0078125 29.76953125 C97.01103018 31.54406765 97.01439463 33.31860379 97.01789856 35.09313965 C97.02385454 38.79126604 97.02574172 42.48936916 97.02514648 46.1875 C97.02504416 50.93340276 97.03878413 55.67915827 97.05591869 60.42502594 C97.06700501 64.07947483 97.06906686 67.73388745 97.06853676 71.38835144 C97.06971859 73.13950618 97.07415167 74.8906618 97.08186913 76.64179993 C97.09161651 79.07836533 97.08881385 81.51460169 97.08276367 83.95117188 C97.08838318 84.67632996 97.09400269 85.40148804 97.09979248 86.14862061 C97.06817142 91.13495358 97.06817142 91.13495358 94.83984375 93.36328125 C88.13949989 94.5487267 81.514782 94.62270356 74.83984375 93.36328125 C72.78294915 91.30638665 73.58237299 87.00772127 73.5234375 84.171875 C73.5026564 83.35203629 73.48187531 82.53219757 73.46046448 81.68751526 C73.39487881 79.05869224 73.33604249 76.42976621 73.27734375 73.80078125 C73.23416708 72.02277564 73.19055308 70.2447806 73.14648438 68.46679688 C73.03918832 64.09906491 72.93794671 59.73122898 72.83984375 55.36328125 C70.94262573 55.37113647 70.94262573 55.37113647 69.00708008 55.37915039 C64.25643641 55.39742747 59.50579576 55.40879518 54.75512695 55.41821289 C52.70987422 55.4232017 50.66462497 55.42999514 48.61938477 55.4387207 C37.64654888 55.48431792 26.76488617 55.52201766 15.83984375 54.36328125 C15.84769897 56.08212524 15.84769897 56.08212524 15.85571289 57.83569336 C15.87376092 62.07168807 15.88527503 66.30767937 15.89477539 70.54370117 C15.89981606 72.37997 15.90664852 74.21623479 15.9152832 76.05249023 C15.92736047 78.68604526 15.93307456 81.31954741 15.9375 83.953125 C15.94266129 84.77916733 15.94782257 85.60520966 15.95314026 86.45628357 C15.9533358 88.42564493 15.90188527 90.39489739 15.83984375 92.36328125 C13.53040663 94.67271837 8.00336194 93.59620751 4.90234375 93.61328125 C3.96970703 93.63390625 3.03707031 93.65453125 2.07617188 93.67578125 C1.18478516 93.6809375 0.29339844 93.68609375 -0.625 93.69140625 C-1.44605225 93.70075195 -2.26710449 93.71009766 -3.11303711 93.71972656 C-3.78858643 93.60209961 -4.46413574 93.48447266 -5.16015625 93.36328125 C-7.69740833 89.55740313 -7.44850552 86.49409465 -7.43481445 82.08398438 C-7.43992538 81.23980453 -7.44503632 80.39562469 -7.45030212 79.52586365 C-7.4642163 76.73201432 -7.46324017 73.93841113 -7.4609375 71.14453125 C-7.46482306 69.2054434 -7.46915744 67.2663564 -7.47392273 65.32727051 C-7.4813886 61.26193483 -7.48109073 57.19668599 -7.47583008 53.13134766 C-7.47003103 47.91556507 -7.48697519 42.70013708 -7.51017475 37.48441315 C-7.52488793 33.47989821 -7.52578716 29.47546918 -7.52266502 25.47093201 C-7.52317932 23.54755449 -7.52843737 21.6241723 -7.53847694 19.70082092 C-7.55077908 17.01450363 -7.54408766 14.32888379 -7.5324707 11.64257812 C-7.54011444 10.84456284 -7.54775818 10.04654755 -7.55563354 9.22434998 C-7.50415077 3.85303013 -7.50415077 3.85303013 -5.75946045 1.36909485 C-3.71834733 0.08542453 -2.40451705 -0.00987755 0 0 Z " fill="#F6F6F6" transform="translate(421.16015625,369.63671875)"/>
<path d="M0 0 C1.15822266 -0.020625 2.31644531 -0.04125 3.50976562 -0.0625 C5.17362305 -0.07023437 5.17362305 -0.07023437 6.87109375 -0.078125 C8.39947876 -0.09214355 8.39947876 -0.09214355 9.95874023 -0.10644531 C12.5625 0.25 12.5625 0.25 14.24194336 1.45483398 C15.8547724 3.64731539 17.1194887 5.88829461 18.3828125 8.30078125 C18.91398682 9.30302734 19.44516113 10.30527344 19.99243164 11.33789062 C20.5518042 12.40201172 21.11117676 13.46613281 21.6875 14.5625 C26.06785594 22.79088758 30.62411121 30.72960491 35.77734375 38.4921875 C37.60810718 41.32045661 39.11796655 44.15791482 40.54296875 47.203125 C41.89850294 49.92458061 43.45006248 52.50968786 45 55.125 C47.68581809 59.67596955 50.13302931 64.27778723 52.453125 69.0234375 C54.02343899 72.17512403 55.7983811 75.20457369 57.5625 78.25 C58.6559946 80.13999066 59.73865926 82.03627377 60.8125 83.9375 C61.33328125 84.84886719 61.8540625 85.76023437 62.390625 86.69921875 C63.5625 89.25 63.5625 89.25 63.5625 93.25 C57.5161993 96.27315035 46.9907015 94.65565531 40.5625 93.25 C37.02984625 90.81181873 35.98751598 88.21106138 34.5625 84.25 C33.67111006 82.56967874 32.75507439 80.90215286 31.8125 79.25 C31.42578125 78.5075 31.0390625 77.765 30.640625 77 C29.67343001 75.08590681 29.67343001 75.08590681 27.5625 74.25 C25.80822907 74.11363445 24.0490242 74.03874472 22.29003906 73.99365234 C20.63757172 73.9501918 20.63757172 73.9501918 18.95172119 73.90585327 C13.90646004 73.80850707 8.86133936 73.73433247 3.81542969 73.68017578 C1.15215718 73.64896556 -1.50595895 73.58894207 -4.16894531 73.51611328 C-8.00392471 73.41278692 -11.83571894 73.36826413 -15.671875 73.3359375 C-17.45340973 73.27096573 -17.45340973 73.27096573 -19.27093506 73.2046814 C-25.45091979 73.10041543 -25.45091979 73.10041543 -30.50161743 76.20793152 C-32.05170474 78.49919761 -33.28361586 80.73947882 -34.4375 83.25 C-35.26894531 84.76787109 -35.26894531 84.76787109 -36.1171875 86.31640625 C-36.70886719 87.55197266 -36.70886719 87.55197266 -37.3125 88.8125 C-38.02083333 90.29166667 -38.72916667 91.77083333 -39.4375 93.25 C-43.0829342 93.44588601 -46.7288579 93.63030536 -50.375 93.8125 C-51.93637695 93.89661133 -51.93637695 93.89661133 -53.52929688 93.98242188 C-54.51865234 94.03076172 -55.50800781 94.07910156 -56.52734375 94.12890625 C-57.90200806 94.19960327 -57.90200806 94.19960327 -59.30444336 94.27172852 C-61.4375 94.25 -61.4375 94.25 -62.4375 93.25 C-62.8361103 89.15000835 -61.96459824 86.78663948 -59.9375 83.25 C-59.39480469 82.29609375 -58.85210938 81.3421875 -58.29296875 80.359375 C-55.68730528 75.99283158 -53.00119116 71.67938494 -50.26953125 67.390625 C-48.34955894 64.0992439 -46.90355862 60.7636942 -45.4375 57.25 C-44.63223768 55.69348686 -43.80219307 54.14929868 -42.9375 52.625 C-42.504375 51.85800781 -42.07125 51.09101563 -41.625 50.30078125 C-40.75118318 48.79172259 -39.8514174 47.29761577 -38.9375 45.8125 C-36.55249553 41.73811736 -34.51844158 37.48590876 -32.4375 33.25 C-31.7775 33.25 -31.1175 33.25 -30.4375 33.25 C-30.20804688 32.61707031 -29.97859375 31.98414063 -29.7421875 31.33203125 C-27.93498656 27.06292484 -25.74461118 23.02498232 -23.5625 18.9375 C-22.68928382 17.29600905 -21.81687948 15.65408596 -20.9453125 14.01171875 C-20.52282227 13.21813965 -20.10033203 12.42456055 -19.66503906 11.60693359 C-18.47762565 9.32704315 -17.35665204 7.02323767 -16.2421875 4.70703125 C-12.84274447 -1.80488885 -6.65613503 0.0295336 0 0 Z M-0.4375 19.25 C-2.49198442 22.78437093 -4.52851811 26.32879679 -6.5625 29.875 C-7.13226562 30.8546875 -7.70203125 31.834375 -8.2890625 32.84375 C-12.68768668 40.54134231 -15.89046673 47.97358904 -19.4375 56.25 C-6.5675 56.25 6.3025 56.25 19.5625 56.25 C14.40932682 44.18911404 14.40932682 44.18911404 8.375 32.6875 C7.95025391 31.93404297 7.52550781 31.18058594 7.08789062 30.40429688 C5.92396898 28.34616482 4.74653604 26.29660709 3.5625 24.25 C2.98886719 23.25097656 2.41523437 22.25195312 1.82421875 21.22265625 C1.40785156 20.57167969 0.99148438 19.92070312 0.5625 19.25 C0.2325 19.25 -0.0975 19.25 -0.4375 19.25 Z " fill="#F5F5F5" transform="translate(712.4375,369.75)"/>
<path d="M0 0 C1.03769531 -0.02900391 2.07539062 -0.05800781 3.14453125 -0.08789062 C9.33330394 -0.13926613 13.10308247 0.06735511 17.75 4.3125 C18.79875634 5.99686624 19.8448998 7.68752357 20.7578125 9.44921875 C22.98445987 13.63075731 25.73542592 17.32462524 29.125 20.625 C31.46913251 23.02494519 33.18632068 25.30141071 35.0625 28.0625 C38.5635795 33.19844482 42.52194313 37.76596612 46.75 42.3125 C50.78994553 39.54225163 52.87249172 36.70078444 55.3046875 32.5859375 C57.52398571 29.09504139 60.15565696 25.96530733 62.765625 22.76171875 C66.87123873 17.69435692 70.72161351 12.44964196 74.37890625 7.05078125 C74.83136719 6.47714844 75.28382813 5.90351563 75.75 5.3125 C76.37261719 4.42691406 76.99523437 3.54132813 77.63671875 2.62890625 C82.46366102 -0.9625326 87.15559726 -0.2614292 93 -0.0625 C94.670625 -0.04123047 94.670625 -0.04123047 96.375 -0.01953125 C104.56783773 0.13033773 104.56783773 0.13033773 105.75 1.3125 C106.18433636 4.59859747 105.9373023 6.01745341 104.140625 8.84765625 C103.43421875 9.68167969 102.7278125 10.51570313 102 11.375 C100.95585938 12.62990234 100.95585938 12.62990234 99.890625 13.91015625 C98.52722224 15.44025242 97.12256488 16.93522641 95.66796875 18.37890625 C93.83934673 20.22242539 92.33435626 22.08809718 90.8125 24.1875 C88.23159686 27.67661969 85.65491189 31.08482013 82.75 34.3125 C82.09 34.3125 81.43 34.3125 80.75 34.3125 C80.53085937 35.18003906 80.31171875 36.04757812 80.0859375 36.94140625 C78.53716129 40.84957547 76.29072372 43.33043981 73.375 46.25 C69.33727546 50.32551074 66.43862671 54.22194848 63.75 59.3125 C63.09 59.3125 62.43 59.3125 61.75 59.3125 C61.42 60.6325 61.09 61.9525 60.75 63.3125 C60.09 63.3125 59.43 63.3125 58.75 63.3125 C58.76047363 64.3319873 58.77094727 65.35147461 58.78173828 66.40185547 C58.81788727 70.17753602 58.84088177 73.95320121 58.85986328 77.72900391 C58.86993254 79.36444672 58.88358881 80.99987149 58.90087891 82.63525391 C58.92508705 84.9834437 58.93647357 87.33139588 58.9453125 89.6796875 C58.95563507 90.41307343 58.96595764 91.14645935 58.97659302 91.90206909 C58.97699368 93.70712697 58.87212755 95.5115783 58.75 97.3125 C56.75 99.3125 56.75 99.3125 54.59521484 99.53955078 C53.29124756 99.52384033 53.29124756 99.52384033 51.9609375 99.5078125 C51.01992188 99.50136719 50.07890625 99.49492188 49.109375 99.48828125 C48.12453125 99.47152344 47.1396875 99.45476562 46.125 99.4375 C45.13242187 99.42847656 44.13984375 99.41945313 43.1171875 99.41015625 C40.66121866 99.38654116 38.20572832 99.35360799 35.75 99.3125 C34.25477583 96.32205167 34.67590494 93.27113996 34.71484375 89.99609375 C34.71112692 88.49413379 34.70519401 86.992178 34.69726562 85.49023438 C34.68676202 83.12838859 34.6871801 80.76954664 34.72583008 78.40795898 C35.0553848 67.38315577 35.0553848 67.38315577 29.859375 57.98828125 C29.15651367 57.35962158 28.45365234 56.73096191 27.72949219 56.08325195 C25.66269124 54.23439807 24.43755949 52.45575762 23.0625 50.0625 C21.02645867 46.61689159 18.66336518 44.08019692 15.75 41.3125 C13.36993826 38.59242944 11.15983051 36.01636403 9.33984375 32.890625 C7.7436952 30.302276 6.0152501 28.27548827 3.9375 26.0625 C0.56633881 22.35792726 -2.17499843 18.53365367 -4.87109375 14.32421875 C-6.73293992 11.6079276 -8.82607187 9.53443412 -11.25 7.3125 C-11.91 6.6525 -12.57 5.9925 -13.25 5.3125 C-13.25 3.9925 -13.25 2.6725 -13.25 1.3125 C-9.29074904 -0.66712548 -4.35355114 0.03996528 0 0 Z " fill="#F2F2F2" transform="translate(639.25,488.6875)"/>
<path d="M0 0 C0.66 0 1.32 0 2 0 C3.55944339 3.11888678 3.28316275 5.5454145 3 9 C1.67228116 12.42592736 0.17705926 15.34223159 -3.125 17.1875 C-3.74375 17.455625 -4.3625 17.72375 -5 18 C-6.26804566 20.0335948 -6.26804566 20.0335948 -7 22 C-5.09598862 23.90401138 -3.66574314 24.93520439 -0.953125 25.19921875 C1.03233273 25.1886578 3.0169914 25.09915043 5 25 C5 24.34 5 23.68 5 23 C8.18377961 21.4081102 10.48336 21.59621044 14 22 C16.32216999 23.94207055 17.99466449 25.57973012 19.875 27.875 C20.3596875 28.43058594 20.844375 28.98617187 21.34375 29.55859375 C25.22293013 34.0554087 26.12840435 36.09339969 26 42 C17.51556717 42.02322252 9.03114774 42.04096548 0.54669094 42.05181217 C-3.39344472 42.05701937 -7.33355854 42.06407755 -11.27368164 42.07543945 C-15.07973888 42.08634544 -18.88577518 42.09229312 -22.69184685 42.09487724 C-24.14022081 42.09671763 -25.5885937 42.10031137 -27.03695869 42.10573006 C-29.07357336 42.11304298 -31.11010273 42.11398665 -33.14672852 42.11352539 C-34.30366714 42.115746 -35.46060577 42.11796661 -36.65260315 42.12025452 C-40.16170979 41.99419061 -43.53510737 41.55600421 -47 41 C-45.58361994 37.62417189 -43.94652324 35.96269567 -41.0625 33.75 C-36.83829744 30.21577608 -35.47527776 27.25567701 -34 22 C-34.99 21.67 -35.98 21.34 -37 21 C-37 20.34 -37 19.68 -37 19 C-35.9171875 18.9071875 -35.9171875 18.9071875 -34.8125 18.8125 C-31.15130298 17.75482086 -29.59192164 15.72833857 -27 13 C-22.70184165 11.56728055 -18.62188101 12.1356759 -14.12890625 12.35546875 C-10.31640729 11.92233841 -9.40011197 10.89189438 -7 8 C-6.13375 7.34 -5.2675 6.68 -4.375 6 C-2.07655992 4.06447151 -1.08284605 2.75633539 0 0 Z " fill="#EFEFEF" transform="translate(895,221)"/>
<path d="M0 0 C0.66 0.33 1.32 0.66 2 1 C1.67 6.61 1.34 12.22 1 18 C3.64 18 6.28 18 9 18 C11.00720923 18.28674418 13.01178687 18.60235737 15 19 C15 19.66 15 20.32 15 21 C15.721875 21.226875 16.44375 21.45375 17.1875 21.6875 C20.60756468 23.28353018 22.58991929 25.10790315 25 28 C25 32 25 32 23.609375 33.52734375 C22.99578125 33.99269531 22.3821875 34.45804688 21.75 34.9375 C19.35601123 36.83535025 17.71648065 38.36452488 15.8125 40.8125 C13.69802902 43.36444774 13.18288686 43.49501159 10 44 C7.57302732 44.09391075 5.14363176 44.13070614 2.71484375 44.1328125 C2.01734512 44.13376923 1.3198465 44.13472595 0.60121155 44.13571167 C-0.86880585 44.13639036 -2.3388263 44.13455778 -3.80883789 44.13037109 C-6.05817382 44.12501031 -8.30731081 44.1303307 -10.55664062 44.13671875 C-11.98697961 44.13605807 -13.41731846 44.13477712 -14.84765625 44.1328125 C-16.14711182 44.13168457 -17.44656738 44.13055664 -18.78540039 44.12939453 C-22 44 -22 44 -25 43 C-24.23750674 36.70943061 -21.19756035 31.9983741 -16.75 27.6875 C-15.8425 26.800625 -14.935 25.91375 -14 25 C-14 24.34 -14 23.68 -14 23 C-18.29 21.35 -22.58 19.7 -27 18 C-27 17.34 -27 16.68 -27 16 C-27.66 16 -28.32 16 -29 16 C-28.67 14.68 -28.34 13.36 -28 12 C-27.19175781 11.81824219 -26.38351562 11.63648438 -25.55078125 11.44921875 C-23.94783203 11.07216797 -23.94783203 11.07216797 -22.3125 10.6875 C-20.72888672 10.32205078 -20.72888672 10.32205078 -19.11328125 9.94921875 C-16.02088282 9.00636703 -13.72543397 7.70399287 -11 6 C-10.34 6 -9.68 6 -9 6 C-9 6.66 -9 7.32 -9 8 C-8.34 8 -7.68 8 -7 8 C-6.71125 7.401875 -6.4225 6.80375 -6.125 6.1875 C-3.55172414 1.18390805 -3.55172414 1.18390805 0 0 Z M-15 15 C-15 15.66 -15 16.32 -15 17 C-12.71356188 18.77195874 -12.71356188 18.77195874 -10 20 C-9.01 19.67 -8.02 19.34 -7 19 C-10.48783514 15.75283938 -10.48783514 15.75283938 -15 15 Z " fill="#EEEFEF" transform="translate(828,219)"/>
<path d="M0 0 C1.28648437 -0.00773437 2.57296875 -0.01546875 3.8984375 -0.0234375 C7.79710832 0.39340152 10.26514065 1.40901419 13.625 3.375 C15.03553217 19.12594261 12.78372746 30.27352825 3.625 43.375 C1.625 45.375 1.625 45.375 -0.43359375 45.640625 C-1.21863281 45.63546875 -2.00367188 45.6303125 -2.8125 45.625 C-3.98619141 45.63273437 -3.98619141 45.63273437 -5.18359375 45.640625 C-7.375 45.375 -7.375 45.375 -10.375 43.375 C-9.17162881 36.48296502 -7.05364914 31.31419307 -3.375 25.375 C-4.509375 25.106875 -5.64375 24.83875 -6.8125 24.5625 C-7.988125 24.170625 -9.16375 23.77875 -10.375 23.375 C-11.65454013 19.53637961 -11.63739185 15.8769711 -11.6875 11.875 C-11.71650391 11.10285156 -11.74550781 10.33070313 -11.77539062 9.53515625 C-11.83806578 3.97153086 -11.83806578 3.97153086 -9.81640625 1.3671875 C-6.45159316 -0.00027254 -3.62642868 -0.02171514 0 0 Z " fill="#EEEEEE" transform="translate(918.375,365.625)"/>
</svg>
