<?xml version="1.0" encoding="UTF-8"?>
<svg version="1.1" xmlns="http://www.w3.org/2000/svg" width="312" height="84">
<path d="M0 0 C1.51400391 0.01740234 1.51400391 0.01740234 3.05859375 0.03515625 C4.07050781 0.04417969 5.08242187 0.05320313 6.125 0.0625 C7.29869141 0.07990234 7.29869141 0.07990234 8.49609375 0.09765625 C8.49609375 1.08765625 8.49609375 2.07765625 8.49609375 3.09765625 C9.15609375 3.09765625 9.81609375 3.09765625 10.49609375 3.09765625 C13.13609375 8.37765625 15.77609375 13.65765625 18.49609375 19.09765625 C22.34493661 12.88702346 25.67130768 6.83368458 28.49609375 0.09765625 C32.45609375 0.09765625 36.41609375 0.09765625 40.49609375 0.09765625 C40.49609375 9.66765625 40.49609375 19.23765625 40.49609375 29.09765625 C37.52609375 29.09765625 34.55609375 29.09765625 31.49609375 29.09765625 C31.16609375 24.47765625 30.83609375 19.85765625 30.49609375 15.09765625 C28.18609375 19.71765625 25.87609375 24.33765625 23.49609375 29.09765625 C20.52609375 29.09765625 17.55609375 29.09765625 14.49609375 29.09765625 C13.65760571 27.64228057 12.82545441 26.18325252 11.99609375 24.72265625 C11.53203125 23.91054687 11.06796875 23.0984375 10.58984375 22.26171875 C9.49609375 20.09765625 9.49609375 20.09765625 9.49609375 18.09765625 C8.83609375 18.09765625 8.17609375 18.09765625 7.49609375 18.09765625 C6.83609375 16.44765625 6.17609375 14.79765625 5.49609375 13.09765625 C5.50769531 13.9175 5.51929687 14.73734375 5.53125 15.58203125 C5.54027344 16.6596875 5.54929687 17.73734375 5.55859375 18.84765625 C5.57019531 19.915 5.58179687 20.98234375 5.59375 22.08203125 C5.51119462 24.63134126 5.24226933 26.67699216 4.49609375 29.09765625 C1.85609375 29.09765625 -0.78390625 29.09765625 -3.50390625 29.09765625 C-3.52856506 25.12834636 -3.54674648 21.15906591 -3.55883789 17.18969727 C-3.56387682 15.83845239 -3.57070802 14.48721299 -3.5793457 13.13598633 C-3.59143044 11.19745191 -3.59660453 9.25887825 -3.6015625 7.3203125 C-3.60679932 6.15250244 -3.61203613 4.98469238 -3.61743164 3.78149414 C-3.46318918 0.13506978 -3.46318918 0.13506978 0 0 Z M31.49609375 10.09765625 C32.49609375 12.09765625 32.49609375 12.09765625 32.49609375 12.09765625 Z " fill="#E1E1E2" transform="translate(85.50390625,46.90234375)"/>
<path d="M0 0 C3.3 0 6.6 0 10 0 C12.39729202 2.86632742 13.58110765 4.68197481 15 8 C15.35578125 8.825 15.7115625 9.65 16.078125 10.5 C16.74826633 12.06032906 17.39402823 13.6314976 18.0078125 15.21484375 C18.93311701 17.35303216 18.93311701 17.35303216 22 18 C22.23783203 17.18208984 22.23783203 17.18208984 22.48046875 16.34765625 C24.31977336 10.40294246 26.84913208 5.36499132 30 0 C33.3 0 36.6 0 40 0 C41.35048039 2.70096077 41.12963577 4.82726517 41.1328125 7.84765625 C41.13474609 9.59079102 41.13474609 9.59079102 41.13671875 11.36914062 C41.13285156 12.58794922 41.12898438 13.80675781 41.125 15.0625 C41.13080078 16.89651367 41.13080078 16.89651367 41.13671875 18.76757812 C41.13542969 19.92837891 41.13414063 21.08917969 41.1328125 22.28515625 C41.13168457 23.35644775 41.13055664 24.42773926 41.12939453 25.53149414 C41 28 41 28 40 29 C36.5 29.125 36.5 29.125 33 29 C30.53910088 26.53910088 31.22337672 19.03154122 31 16 C28.69 20.29 26.38 24.58 24 29 C21.69 29 19.38 29 17 29 C15.26171875 26.86328125 15.26171875 26.86328125 14 24 C13.47019531 23.04480469 12.94039062 22.08960937 12.39453125 21.10546875 C11.61142578 19.66107422 11.61142578 19.66107422 10.8125 18.1875 C10.28269531 17.21167969 9.75289062 16.23585938 9.20703125 15.23046875 C8.80871094 14.49441406 8.41039062 13.75835937 8 13 C8.01160156 13.65226562 8.02320313 14.30453125 8.03515625 14.9765625 C8.08470994 19.7761914 7.99413751 24.27784685 7 29 C4.69 29 2.38 29 0 29 C0 19.43 0 9.86 0 0 Z " fill="#DFDFE0" transform="translate(25,12)"/>
<path d="M0 0 C8.58 0 17.16 0 26 0 C26 0.66 26 1.32 26 2 C27.65 2.66 29.3 3.32 31 4 C31.1953125 10.0546875 31.1953125 10.0546875 31 12 C30.34 12.66 29.68 13.32 29 14 C29.7425 14.5259375 29.7425 14.5259375 30.5 15.0625 C32.7579216 17.97898206 32.25596941 20.41642819 32 24 C31 27 31 27 29.33105469 28.17529297 C26.34916389 29.2302602 23.86546703 29.22514592 20.703125 29.1953125 C19.61676758 29.19031738 18.53041016 29.18532227 17.41113281 29.18017578 C16.03795898 29.16196777 14.66478516 29.14375977 13.25 29.125 C6.69125 29.063125 6.69125 29.063125 0 29 C0 19.43 0 9.86 0 0 Z M8 7 C8 8.32 8 9.64 8 11 C12.62 11 17.24 11 22 11 C22 9.68 22 8.36 22 7 C17.38 7 12.76 7 8 7 Z M8 18 C8 19.32 8 20.64 8 22 C12.95 22 17.9 22 23 22 C23.33 20.68 23.66 19.36 24 18 C18.72 18 13.44 18 8 18 Z " fill="#E9EAEA" transform="translate(209,12)"/>
<path d="M0 0 C4.58312084 -0.11605098 9.16586449 -0.18720362 13.75 -0.25 C15.05195313 -0.28351562 16.35390625 -0.31703125 17.6953125 -0.3515625 C18.94570312 -0.36445312 20.19609375 -0.37734375 21.484375 -0.390625 C22.63647461 -0.41157227 23.78857422 -0.43251953 24.97558594 -0.45410156 C28.63732191 0.09569089 29.74207694 1.13463569 32 4 C33.58889409 7.17778819 33.27455075 10.53379682 33 14 C32.1875 16.4375 32.1875 16.4375 31 18 C30.01 18.33 29.02 18.66 28 19 C28.3609375 19.55429688 28.721875 20.10859375 29.09375 20.6796875 C29.5578125 21.40414062 30.021875 22.12859375 30.5 22.875 C31.19609375 23.95394531 31.19609375 23.95394531 31.90625 25.0546875 C33 27 33 27 33 29 C29.7 29 26.4 29 23 29 C19 22.25 19 22.25 19 20 C14.05 20.495 14.05 20.495 9 21 C9 23.64 9 26.28 9 29 C5.7 29 2.4 29 -1 29 C-1.02891546 24.54168018 -1.04676981 20.08338431 -1.0625 15.625 C-1.07087891 14.35398437 -1.07925781 13.08296875 -1.08789062 11.7734375 C-1.09111328 10.56171875 -1.09433594 9.35 -1.09765625 8.1015625 C-1.10289307 6.98088379 -1.10812988 5.86020508 -1.11352539 4.70556641 C-1 2 -1 2 0 0 Z M8 7 C8.33 8.98 8.66 10.96 9 13 C11.12493141 13.02693575 13.24995912 13.04636628 15.375 13.0625 C17.15003906 13.07990234 17.15003906 13.07990234 18.9609375 13.09765625 C21.91921521 13.21466593 21.91921521 13.21466593 24 12 C24.65213292 9.97536745 24.65213292 9.97536745 25 8 C21.93466836 6.46733418 18.73245728 6.89723529 15.375 6.9375 C14.31539062 6.94426758 14.31539062 6.94426758 13.234375 6.95117188 C11.48954725 6.96296125 9.744763 6.98089676 8 7 Z " fill="#E5E5E5" transform="translate(235,47)"/>
<path d="M0 0 C4.27081914 -0.02897435 8.54161309 -0.04678996 12.8125 -0.0625 C14.63491211 -0.07506836 14.63491211 -0.07506836 16.49414062 -0.08789062 C18.23920898 -0.09272461 18.23920898 -0.09272461 20.01953125 -0.09765625 C21.09307861 -0.10289307 22.16662598 -0.10812988 23.27270508 -0.11352539 C27.0141049 0.04221276 28.73696217 0.7920166 31.6875 3.125 C35.23633632 7.53416028 34.5609275 12.95265932 34.56640625 18.34375 C33.91933088 22.52073306 32.63329012 24.73176703 30 28 C27.19397735 29.40301133 24.84981633 29.1297542 21.71484375 29.1328125 C20.46251953 29.13410156 19.21019531 29.13539062 17.91992188 29.13671875 C16.60572266 29.13285156 15.29152344 29.12898438 13.9375 29.125 C12.61943359 29.12886719 11.30136719 29.13273437 9.94335938 29.13671875 C8.69232422 29.13542969 7.44128906 29.13414063 6.15234375 29.1328125 C4.99726318 29.13168457 3.84218262 29.13055664 2.65209961 29.12939453 C0 29 0 29 -1 28 C-1.09974389 26.09715013 -1.1308063 24.19061747 -1.1328125 22.28515625 C-1.13410156 21.12435547 -1.13539063 19.96355469 -1.13671875 18.76757812 C-1.13091797 16.93356445 -1.13091797 16.93356445 -1.125 15.0625 C-1.13080078 13.23428711 -1.13080078 13.23428711 -1.13671875 11.36914062 C-1.13542969 10.20705078 -1.13414062 9.04496094 -1.1328125 7.84765625 C-1.13168457 6.77523682 -1.13055664 5.70281738 -1.12939453 4.59790039 C-1 2 -1 2 0 0 Z M8 7 C8 12.28 8 17.56 8 23 C9.876875 23.04125 11.75375 23.0825 13.6875 23.125 C14.74324219 23.14820312 15.79898437 23.17140625 16.88671875 23.1953125 C20.06270165 22.9960664 22.18391666 22.45572935 25 21 C26.78853006 18.07331445 27.01220632 16.30515793 26.875 12.875 C25.81936129 9.40647282 25.13475018 8.7409606 22 7 C18.49345032 6.63747603 18.49345032 6.63747603 14.75 6.8125 C12.5225 6.874375 10.295 6.93625 8 7 Z " fill="#E9EAEA" transform="translate(272,47)"/>
<path d="M0 0 C0.79921875 0.00644531 1.5984375 0.01289063 2.421875 0.01953125 C3.246875 0.03628906 4.071875 0.05304687 4.921875 0.0703125 C5.76234375 0.07933594 6.6028125 0.08835937 7.46875 0.09765625 C9.53658104 0.12115433 11.60426495 0.15702342 13.671875 0.1953125 C13.671875 0.8553125 13.671875 1.5153125 13.671875 2.1953125 C14.290625 2.5046875 14.909375 2.8140625 15.546875 3.1328125 C16.921875 3.8203125 18.296875 4.5078125 19.671875 5.1953125 C19.671875 6.8453125 19.671875 8.4953125 19.671875 10.1953125 C13.6171875 10.390625 13.6171875 10.390625 11.671875 10.1953125 C11.011875 9.5353125 10.351875 8.8753125 9.671875 8.1953125 C6.77304417 7.95191699 6.77304417 7.95191699 3.546875 8.0703125 C1.90332031 8.09738281 1.90332031 8.09738281 0.2265625 8.125 C-0.61648438 8.14820313 -1.45953125 8.17140625 -2.328125 8.1953125 C-2.328125 8.5253125 -2.328125 8.8553125 -2.328125 9.1953125 C-1.20792969 9.32808594 -0.08773438 9.46085937 1.06640625 9.59765625 C2.53908229 9.77587819 4.01173747 9.95427261 5.484375 10.1328125 C6.22236328 10.21982422 6.96035156 10.30683594 7.72070312 10.39648438 C15.86847616 11.39191366 15.86847616 11.39191366 18.859375 14.3828125 C21.02530815 17.74374325 21.32610168 19.26995241 20.671875 23.1953125 C18.52097049 26.53292295 17.46774701 27.93002183 13.671875 29.1953125 C10.71743073 29.41959093 7.75898628 29.38045788 4.796875 29.3828125 C3.99378906 29.39505859 3.19070313 29.40730469 2.36328125 29.41992188 C-1.92866152 29.43052799 -5.50314364 29.38413263 -9.328125 27.1953125 C-11.61826153 23.7601077 -11.50655473 22.2099815 -11.328125 18.1953125 C-8.688125 18.1953125 -6.048125 18.1953125 -3.328125 18.1953125 C-2.998125 19.1853125 -2.668125 20.1753125 -2.328125 21.1953125 C-0.18235863 21.22217188 1.96350145 21.24164338 4.109375 21.2578125 C5.30433594 21.26941406 6.49929688 21.28101562 7.73046875 21.29296875 C10.56060841 21.53433042 10.56060841 21.53433042 11.671875 20.1953125 C8.04971215 18.38423107 3.62631326 18.4872201 -0.38671875 18.12109375 C-4.4897404 17.6752774 -7.43169504 17.2595457 -10.328125 14.1953125 C-11.40658465 10.31285775 -11.72036442 8.1243006 -10.140625 4.3828125 C-7.22851316 0.86819476 -4.49781534 -0.0642545 0 0 Z " fill="#DFDFE0" transform="translate(266.328125,11.8046875)"/>
<path d="M0 0 C8.25 0 16.5 0 25 0 C25 0.66 25 1.32 25 2 C25.61875 2.309375 26.2375 2.61875 26.875 2.9375 C28.25 3.625 29.625 4.3125 31 5 C31.78774617 13.03501094 31.78774617 13.03501094 28.5 17.0625 C27.675 17.701875 26.85 18.34125 26 19 C26.3609375 19.47050781 26.721875 19.94101562 27.09375 20.42578125 C27.78984375 21.35970703 27.78984375 21.35970703 28.5 22.3125 C28.9640625 22.92738281 29.428125 23.54226562 29.90625 24.17578125 C31 26 31 26 31 29 C28.03 29 25.06 29 22 29 C21.61521484 28.04287109 21.61521484 28.04287109 21.22265625 27.06640625 C20.00079225 24.4293193 18.85505853 22.24470553 17 20 C13.78976134 18.87265867 11.4668174 18.94825646 8 19 C8 22.3 8 25.6 8 29 C1.84765625 29.09765625 1.84765625 29.09765625 0 29 C-1.76988265 27.23011735 -1.13029068 24.68034582 -1.1328125 22.28515625 C-1.13410156 21.12435547 -1.13539063 19.96355469 -1.13671875 18.76757812 C-1.13091797 16.93356445 -1.13091797 16.93356445 -1.125 15.0625 C-1.13080078 13.23428711 -1.13080078 13.23428711 -1.13671875 11.36914062 C-1.13542969 10.20705078 -1.13414062 9.04496094 -1.1328125 7.84765625 C-1.13168457 6.77523682 -1.13055664 5.70281738 -1.12939453 4.59790039 C-1 2 -1 2 0 0 Z M8 7 C8 8.65 8 10.3 8 12 C12.62 12 17.24 12 22 12 C22 10.68 22 9.36 22 8 C20.88873341 6.66098208 20.88873341 6.66098208 18.05859375 6.90234375 C16.86363281 6.91394531 15.66867188 6.92554688 14.4375 6.9375 C13.23996094 6.94652344 12.04242188 6.95554687 10.80859375 6.96484375 C9.41833984 6.98224609 9.41833984 6.98224609 8 7 Z " fill="#E3E3E4" transform="translate(137,12)"/>
<path d="M0 0 C4.063125 -0.020625 8.12625 -0.04125 12.3125 -0.0625 C13.59036377 -0.071604 14.86822754 -0.08070801 16.18481445 -0.09008789 C17.1924585 -0.09258545 18.20010254 -0.09508301 19.23828125 -0.09765625 C20.26993408 -0.10289307 21.30158691 -0.10812988 22.36450195 -0.11352539 C25 0 25 0 28 1 C28 1.66 28 2.32 28 3 C28.61875 3.268125 29.2375 3.53625 29.875 3.8125 C32 5 32 5 34 8 C34.63080053 13.49383253 35.31946506 19.86355382 32.1875 24.6875 C29.59044604 27.43295705 28.01141204 28.91854047 24.1809082 29.22705078 C23.06546631 29.21657715 21.95002441 29.20610352 20.80078125 29.1953125 C19.71192627 29.19031738 18.62307129 29.18532227 17.5012207 29.18017578 C16.11894287 29.16196777 14.73666504 29.14375977 13.3125 29.125 C8.919375 29.08375 4.52625 29.0425 0 29 C0 19.43 0 9.86 0 0 Z M7 7 C7.33 12.28 7.66 17.56 8 23 C10.5678125 23.061875 10.5678125 23.061875 13.1875 23.125 C14.63189453 23.15980469 14.63189453 23.15980469 16.10546875 23.1953125 C19.37755561 22.97452391 22.59681294 22.40318706 25 20 C25.09854655 18.35659133 25.12972411 16.7088539 25.125 15.0625 C25.12757812 14.16660156 25.13015625 13.27070312 25.1328125 12.34765625 C25.15421413 9.97844445 25.15421413 9.97844445 24 8 C18.57364835 6.19121612 12.66885438 6.94799216 7 7 Z " fill="#E9EAEA" transform="translate(6,47)"/>
<path d="M0 0 C2.59790039 -0.35644531 2.59790039 -0.35644531 5.84765625 -0.328125 C7.59079102 -0.32039062 7.59079102 -0.32039062 9.36914062 -0.3125 C10.58794922 -0.291875 11.80675781 -0.27125 13.0625 -0.25 C14.28517578 -0.24484375 15.50785156 -0.2396875 16.76757812 -0.234375 C25.84627976 -0.15372024 25.84627976 -0.15372024 27 1 C27 2.98 27 4.96 27 7 C20.4 7 13.8 7 7 7 C7 8.32 7 9.64 7 11 C8.28777344 10.98839844 9.57554688 10.97679687 10.90234375 10.96484375 C12.58072772 10.9554673 14.25911326 10.94636695 15.9375 10.9375 C17.21270508 10.92493164 17.21270508 10.92493164 18.51367188 10.91210938 C19.32255859 10.90888672 20.13144531 10.90566406 20.96484375 10.90234375 C21.7137085 10.89710693 22.46257324 10.89187012 23.23413086 10.88647461 C25 11 25 11 26 12 C26 13.98 26 15.96 26 18 C19.73 18 13.46 18 7 18 C7 19.32 7 20.64 7 22 C13.6 22 20.2 22 27 22 C27 24.31 27 26.62 27 29 C17.76 29 8.52 29 -1 29 C-3.05217837 24.89564327 -2.18489112 19.57324872 -2.1875 15.0625 C-2.19974609 13.95197266 -2.21199219 12.84144531 -2.22460938 11.69726562 C-2.22654297 10.63314453 -2.22847656 9.56902344 -2.23046875 8.47265625 C-2.23457764 7.49562744 -2.23868652 6.51859863 -2.24291992 5.51196289 C-2 3 -2 3 0 0 Z " fill="#F6F6F6" transform="translate(71,12)"/>
<path d="M0 0 C4.58312084 -0.11605098 9.16586449 -0.18720362 13.75 -0.25 C15.05195313 -0.28351562 16.35390625 -0.31703125 17.6953125 -0.3515625 C18.94570312 -0.36445312 20.19609375 -0.37734375 21.484375 -0.390625 C22.63647461 -0.41157227 23.78857422 -0.43251953 24.97558594 -0.45410156 C28.63732191 0.09569089 29.74207694 1.13463569 32 4 C33.73899832 7.47799665 33.58979036 11.205682 33 15 C30.3210618 18.5719176 28.33291118 20.20277294 24 21 C21.24029592 21.06926968 18.50803958 21.0941736 15.75 21.0625 C15.00492188 21.05798828 14.25984375 21.05347656 13.4921875 21.04882812 C11.6614236 21.03709246 9.83070127 21.0191585 8 21 C8 23.64 8 26.28 8 29 C1.84765625 29.09765625 1.84765625 29.09765625 0 29 C-1.6653214 27.3346786 -1.13003082 25.33182429 -1.1328125 23.046875 C-1.13410156 22.03496094 -1.13539063 21.02304688 -1.13671875 19.98046875 C-1.13285156 18.91441406 -1.12898437 17.84835938 -1.125 16.75 C-1.12886719 15.69941406 -1.13273438 14.64882813 -1.13671875 13.56640625 C-1.13542969 12.54933594 -1.13414062 11.53226563 -1.1328125 10.484375 C-1.13168457 9.55334961 -1.13055664 8.62232422 -1.12939453 7.66308594 C-1.00073507 5.0151285 -0.58837062 2.58135194 0 0 Z M8 7 C8 8.98 8 10.96 8 13 C13.28 13 18.56 13 24 13 C24.33 11.35 24.66 9.7 25 8 C23.81147145 6.58225162 23.81147145 6.58225162 20.40234375 6.90234375 C18.91403133 6.9090178 17.42573568 6.92097817 15.9375 6.9375 C14.79958008 6.94426758 14.79958008 6.94426758 13.63867188 6.95117188 C11.75908129 6.9629932 9.87953101 6.98092922 8 7 Z " fill="#DFE0E0" transform="translate(130,47)"/>
<path d="M0 0 C2.64 0 5.28 0 8 0 C8 3.3 8 6.6 8 10 C12.95 10.33 17.9 10.66 23 11 C22.979375 9.370625 22.95875 7.74125 22.9375 6.0625 C22.91613932 4.37500659 22.92794489 2.68608966 23 1 C24 0 24 0 27.5625 -0.0625 C28.696875 -0.041875 29.83125 -0.02125 31 0 C32.35048039 2.70096077 32.12963577 4.82726517 32.1328125 7.84765625 C32.13474609 9.59079102 32.13474609 9.59079102 32.13671875 11.36914062 C32.13285156 12.58794922 32.12898438 13.80675781 32.125 15.0625 C32.13080078 16.89651367 32.13080078 16.89651367 32.13671875 18.76757812 C32.13542969 19.92837891 32.13414062 21.08917969 32.1328125 22.28515625 C32.13168457 23.35644775 32.13055664 24.42773926 32.12939453 25.53149414 C32 28 32 28 31 29 C28.32941149 29.14115161 25.67567762 29.04247107 23 29 C23 25.37 23 21.74 23 18 C18.05 18 13.1 18 8 18 C8 21.63 8 25.26 8 29 C5.36 29 2.72 29 0 29 C0 19.43 0 9.86 0 0 Z " fill="#E6E6E6" transform="translate(101,12)"/>
<path d="M0 0 C2.97 0 5.94 0 9 0 C9.04898438 1.42054687 9.09796875 2.84109375 9.1484375 4.3046875 C9.22345936 6.16147856 9.29900744 8.01824841 9.375 9.875 C9.4059375 10.81214844 9.436875 11.74929687 9.46875 12.71484375 C9.50742187 13.61074219 9.54609375 14.50664063 9.5859375 15.4296875 C9.6173584 16.25710449 9.6487793 17.08452148 9.68115234 17.93701172 C9.82599137 20.21986085 9.82599137 20.21986085 12 22 C14.86382721 22.28162436 14.86382721 22.28162436 18.0625 22.1875 C19.14660156 22.18105469 20.23070313 22.17460938 21.34765625 22.16796875 C23.92202315 22.29831107 23.92202315 22.29831107 25 21 C25.14452718 19.52492882 25.22694925 18.0436396 25.28125 16.5625 C25.31863281 15.66789062 25.35601562 14.77328125 25.39453125 13.8515625 C25.42933594 12.91054688 25.46414062 11.96953125 25.5 11 C25.56858488 9.14566805 25.64127813 7.29148192 25.71875 5.4375 C25.74904297 4.61121094 25.77933594 3.78492188 25.81054688 2.93359375 C26 1 26 1 27 0 C29.67058851 -0.14115161 32.32432238 -0.04247107 35 0 C35.11681812 3.54138618 35.187455 7.0822724 35.25 10.625 C35.30027344 12.12353516 35.30027344 12.12353516 35.3515625 13.65234375 C35.43295513 19.79748696 35.08357877 23.30856027 31 28 C28.45435746 30.54564254 21.66557892 29.33151462 18.25 29.375 C16.60257813 29.43107422 16.60257813 29.43107422 14.921875 29.48828125 C6.81274656 29.57685183 6.81274656 29.57685183 2.796875 26.7265625 C0.24432332 22.85334277 -0.12702945 19.81659347 -0.09765625 15.234375 C-0.09443359 14.34492187 -0.09121094 13.45546875 -0.08789062 12.5390625 C-0.07532227 11.15847656 -0.07532227 11.15847656 -0.0625 9.75 C-0.05798828 8.81414063 -0.05347656 7.87828125 -0.04882812 6.9140625 C-0.03706938 4.60934753 -0.01913468 2.30466554 0 0 Z " fill="#E3E3E4" transform="translate(43,47)"/>
<path d="M0 0 C2.3828125 -0.29296875 2.3828125 -0.29296875 5.125 -0.1875 C6.03507812 -0.16042969 6.94515625 -0.13335937 7.8828125 -0.10546875 C8.58148438 -0.07066406 9.28015625 -0.03585938 10 0 C10.49628906 0.94359375 10.99257812 1.8871875 11.50390625 2.859375 C15.4133763 10.25736969 19.41967483 17.5445961 23.75 24.70703125 C25 27 25 27 25 29 C21.7 29 18.4 29 15 29 C14.505 26.525 14.505 26.525 14 24 C8.06 24.33 2.12 24.66 -4 25 C-4.66 26.32 -5.32 27.64 -6 29 C-8.97 29 -11.94 29 -15 29 C-11.76667019 18.27895906 -6.1780083 9.26701245 0 0 Z M4 7 C1.64089647 11.2637281 1.64089647 11.2637281 1 16 C0.01 16.495 0.01 16.495 -1 17 C2.63 17 6.26 17 10 17 C8.35 13.7 6.7 10.4 5 7 C4.67 7 4.34 7 4 7 Z " fill="#E2E2E3" transform="translate(208,47)"/>
<path d="M0 0 C2.1640625 -0.29296875 2.1640625 -0.29296875 4.625 -0.1875 C5.44226563 -0.16042969 6.25953125 -0.13335937 7.1015625 -0.10546875 C8.04128906 -0.05326172 8.04128906 -0.05326172 9 0 C9.60328125 1.15757813 10.2065625 2.31515625 10.828125 3.5078125 C11.63524231 5.04696644 12.44254376 6.58602384 13.25 8.125 C13.64574219 8.88554687 14.04148438 9.64609375 14.44921875 10.4296875 C16.2464376 13.84734957 18.04938163 17.16738575 20.25 20.34375 C22.1920364 23.29148382 22.6682026 25.51612729 23 29 C17.04296875 29.48828125 17.04296875 29.48828125 15 29 C14.58363281 28.18144531 14.16726562 27.36289062 13.73828125 26.51953125 C13.16464844 25.68808594 12.59101563 24.85664062 12 24 C9.09451024 23.47676562 6.89253553 23.29779709 4 23.375 C3.27554688 23.35566406 2.55109375 23.33632813 1.8046875 23.31640625 C-0.58964979 23.27915586 -0.58964979 23.27915586 -4 24 C-5.77037848 26.44658733 -5.77037848 26.44658733 -7 29 C-9.79965679 29.66913403 -12.08800141 29.23868841 -15 29 C-11.88288292 18.28015832 -6.15166571 9.22749857 0 0 Z M3 8 C1.02 12.455 1.02 12.455 -1 17 C2.3 17 5.6 17 9 17 C7.68 14.03 6.36 11.06 5 8 C4.34 8 3.68 8 3 8 Z " fill="#E2E2E3" transform="translate(184,12)"/>
<path d="M0 0 C3.54607568 -0.7193883 6.4810356 -0.93207697 10 0 C13.29400689 3.29926889 15.66392421 6.98038356 18 11 C20.82689225 8.33015732 22.92118288 6.14918955 24.75 2.6875 C27 0 27 0 29.25 -0.37890625 C31.52974182 -0.37534415 33.73620915 -0.26120664 36 0 C35.55396127 5.05510556 33.35299176 7.40166738 30 11 C29.01 11.495 29.01 11.495 28 12 C26.98133771 13.65532623 25.98189187 15.32260138 25 17 C24.34 17.66 23.68 18.32 23 19 C22.53837573 21.43252661 22.53837573 21.43252661 22.375 24.125 C22.30023438 25.03507812 22.22546875 25.94515625 22.1484375 26.8828125 C22.09945312 27.58148438 22.05046875 28.28015625 22 29 C19.36 29 16.72 29 14 29 C13.96261719 28.24074219 13.92523438 27.48148438 13.88671875 26.69921875 C13.82097656 25.70535156 13.75523437 24.71148437 13.6875 23.6875 C13.62949219 22.70136719 13.57148438 21.71523437 13.51171875 20.69921875 C12.93182392 17.64038421 12.31462817 16.96192293 10 15 C9.00095177 13.70256937 8.02245207 12.38911812 7.0625 11.0625 C5.3359347 8.71161557 3.7241195 6.73137951 1.625 4.6875 C0 3 0 3 0 0 Z " fill="#DCDCDD" transform="translate(162,47)"/>
<path d="M0 0 C2.59790039 -0.35644531 2.59790039 -0.35644531 5.84765625 -0.328125 C7.59079102 -0.32039062 7.59079102 -0.32039062 9.36914062 -0.3125 C10.58794922 -0.291875 11.80675781 -0.27125 13.0625 -0.25 C14.28517578 -0.24484375 15.50785156 -0.2396875 16.76757812 -0.234375 C25.84627976 -0.15372024 25.84627976 -0.15372024 27 1 C27.04080783 2.99958364 27.04254356 5.00045254 27 7 C26.01 6.67 25.02 6.34 24 6 C24.33 4.68 24.66 3.36 25 2 C16.75 2 8.5 2 0 2 C0.33 10.91 0.66 19.82 1 29 C0.34 29 -0.32 29 -1 29 C-3.05217837 24.89564327 -2.18489112 19.57324872 -2.1875 15.0625 C-2.19974609 13.95197266 -2.21199219 12.84144531 -2.22460938 11.69726562 C-2.22654297 10.63314453 -2.22847656 9.56902344 -2.23046875 8.47265625 C-2.23457764 7.49562744 -2.23868652 6.51859863 -2.24291992 5.51196289 C-2 3 -2 3 0 0 Z " fill="#A7A8AA" transform="translate(71,12)"/>
<path d="M0 0 C6.15234375 -0.09765625 6.15234375 -0.09765625 8 0 C9 1 9 1 9.3125 4.1875 C8.94566627 8.66287146 7.99573301 10.68040396 5 14 C3.35 14 1.7 14 0 14 C0 9.38 0 4.76 0 0 Z " fill="#D2D3D4" transform="translate(244,11)"/>
<path d="M0 0 C8.58 0 17.16 0 26 0 C26 0.66 26 1.32 26 2 C18.08 2 10.16 2 2 2 C2 10.91 2 19.82 2 29 C1.34 29 0.68 29 0 29 C0 19.43 0 9.86 0 0 Z " fill="#C0C0C2" transform="translate(209,12)"/>
<path d="M0 0 C3.14621682 0.13822199 6.29185566 0.28685084 9.4375 0.4375 C10.33533203 0.47681641 11.23316406 0.51613281 12.15820312 0.55664062 C13.01220703 0.59853516 13.86621094 0.64042969 14.74609375 0.68359375 C15.53685303 0.72025146 16.3276123 0.75690918 17.14233398 0.79467773 C19 1 19 1 20 2 C20 3.98 20 5.96 20 8 C13.4 8 6.8 8 0 8 C0 7.34 0 6.68 0 6 C5.94 6 11.88 6 18 6 C18 4.68 18 3.36 18 2 C17.3709375 2.08378906 16.741875 2.16757812 16.09375 2.25390625 C10.4685618 2.9231681 5.58766133 2.93127689 0 2 C0 1.34 0 0.68 0 0 Z " fill="#C3C4C5" transform="translate(77,22)"/>
<path d="M0 0 C2.33294775 -0.04241723 4.66702567 -0.04092937 7 0 C8 1 8 1 8.0625 4.0625 C8.041875 5.031875 8.02125 6.00125 8 7 C7.01 6.67 6.02 6.34 5 6 C5.33 4.68 5.66 3.36 6 2 C4.02 2 2.04 2 0 2 C0 1.34 0 0.68 0 0 Z " fill="#B2B3B5" transform="translate(90,12)"/>
<path d="M0 0 C3.07692057 2.76922851 4.77800007 5.02850024 6 9 C6 9.99 6 10.98 6 12 C4.68 12 3.36 12 2 12 C2 11.34 2 10.68 2 10 C2.66 10 3.32 10 4 10 C3.71125 9.44570313 3.4225 8.89140625 3.125 8.3203125 C2.568125 7.23363281 2.568125 7.23363281 2 6.125 C1.62875 5.40570313 1.2575 4.68640625 0.875 3.9453125 C0 2 0 2 0 0 Z " fill="#A4A5A7" transform="translate(201,29)"/>
<path d="M0 0 C3.3 0 6.6 0 10 0 C10.66 1.98 11.32 3.96 12 6 C11.484375 5.34 10.96875 4.68 10.4375 4 C7.17358681 1.32191738 5.11600475 1.61888845 1 2 C0.01 2.495 0.01 2.495 -1 3 C-0.67 2.01 -0.34 1.02 0 0 Z " fill="#939497" transform="translate(208,47)"/>
</svg>
